<svg xmlns="http://www.w3.org/2000/svg" xmlns:xlink="http://www.w3.org/1999/xlink" viewBox="0 0 3710 3710"><defs><style>.cls-1{fill:url(#linear-gradient);}.cls-2{fill:url(#linear-gradient-2);}.cls-3{isolation:isolate;}.cls-4,.cls-45{fill:#fff;}.cls-5{fill:#c2f2eb;}.cls-18,.cls-6{fill:#f4f7fa;}.cls-7{clip-path:url(#clip-path);}.cls-8{opacity:0.8;}.cls-18,.cls-44,.cls-45,.cls-8{mix-blend-mode:soft-light;}.cls-9{clip-path:url(#clip-path-2);}.cls-10{fill:url(#linear-gradient-5);}.cls-11{fill:url(#linear-gradient-6);}.cls-12{fill:url(#linear-gradient-7);}.cls-13{fill:url(#linear-gradient-8);}.cls-14{fill:url(#linear-gradient-9);}.cls-15{fill:url(#linear-gradient-10);}.cls-16{fill:url(#linear-gradient-11);}.cls-17{fill:#d8dee8;}.cls-18,.cls-56,.cls-63{opacity:0.7;}.cls-19{fill:url(#linear-gradient-12);}.cls-20{fill:url(#linear-gradient-13);}.cls-21{fill:url(#linear-gradient-14);}.cls-22{fill:url(#linear-gradient-15);}.cls-23{fill:url(#linear-gradient-16);}.cls-24{fill:url(#linear-gradient-17);}.cls-25{fill:url(#linear-gradient-18);}.cls-26{fill:url(#linear-gradient-19);}.cls-27{fill:url(#linear-gradient-20);}.cls-28{fill:url(#linear-gradient-21);}.cls-29{fill:url(#linear-gradient-22);}.cls-30{fill:url(#linear-gradient-23);}.cls-31{fill:url(#linear-gradient-24);}.cls-32{fill:url(#linear-gradient-25);}.cls-33{fill:url(#linear-gradient-26);}.cls-34{fill:url(#linear-gradient-27);}.cls-35{fill:url(#linear-gradient-28);}.cls-36{fill:url(#linear-gradient-29);}.cls-37{fill:url(#linear-gradient-30);}.cls-38{fill:url(#linear-gradient-31);}.cls-39{fill:url(#linear-gradient-32);}.cls-40{fill:url(#linear-gradient-33);}.cls-41{fill:url(#linear-gradient-34);}.cls-42{fill:url(#linear-gradient-35);}.cls-43{fill:url(#linear-gradient-36);}.cls-44,.cls-81,.cls-90{opacity:0.3;}.cls-45{opacity:0.4;}.cls-46{fill:url(#linear-gradient-37);}.cls-47{fill:url(#linear-gradient-38);}.cls-48{fill:#bfc8d6;}.cls-49{fill:url(#linear-gradient-39);}.cls-50{fill:url(#linear-gradient-40);}.cls-51{fill:url(#linear-gradient-41);}.cls-52{fill:url(#linear-gradient-42);}.cls-53{fill:url(#linear-gradient-43);}.cls-54{fill:url(#linear-gradient-44);}.cls-55{opacity:0.5;fill:url(#linear-gradient-45);}.cls-55,.cls-56,.cls-71,.cls-72,.cls-75,.cls-81,.cls-90{mix-blend-mode:multiply;}.cls-57{fill:url(#linear-gradient-46);}.cls-58{fill:url(#linear-gradient-47);}.cls-59{fill:url(#linear-gradient-48);}.cls-60{fill:url(#linear-gradient-49);}.cls-61{fill:url(#linear-gradient-50);}.cls-62{fill:url(#linear-gradient-51);}.cls-64{fill:url(#linear-gradient-52);}.cls-65{fill:url(#linear-gradient-53);}.cls-66{fill:url(#linear-gradient-54);}.cls-67{fill:url(#linear-gradient-55);}.cls-68{fill:url(#linear-gradient-56);}.cls-69{fill:#fec045;}.cls-70{fill:url(#linear-gradient-57);}.cls-71{opacity:0.15;fill:url(#linear-gradient-58);}.cls-72{opacity:0.42;}.cls-73{fill:url(#linear-gradient-59);}.cls-74{fill:url(#linear-gradient-60);}.cls-75{opacity:0.26;fill:url(#linear-gradient-61);}.cls-76{opacity:0.53;}.cls-77{fill:url(#linear-gradient-62);}.cls-78{fill:#26264f;}.cls-79{fill:url(#linear-gradient-63);}.cls-80{fill:url(#linear-gradient-64);}.cls-81{fill:url(#linear-gradient-65);}.cls-82{fill:url(#linear-gradient-66);}.cls-83{fill:url(#linear-gradient-67);}.cls-84{fill:url(#linear-gradient-68);}.cls-85{fill:url(#linear-gradient-69);}.cls-86{fill:url(#linear-gradient-70);}.cls-87{fill:url(#linear-gradient-71);}.cls-88{fill:url(#linear-gradient-72);}.cls-89{fill:url(#linear-gradient-73);}.cls-90{fill:url(#linear-gradient-74);}</style><linearGradient id="linear-gradient" x1="2022.78" y1="301.71" x2="1199.78" y2="6673.33" gradientUnits="userSpaceOnUse"><stop offset="0" stop-color="#fcb148"/><stop offset="0.05" stop-color="#fdba46"/><stop offset="0.14" stop-color="#ffc244"/><stop offset="0.32" stop-color="#ffc444"/><stop offset="0.48" stop-color="#fdb946"/><stop offset="0.78" stop-color="#f99c4d"/><stop offset="0.87" stop-color="#f8924f"/><stop offset="1" stop-color="#f8924f"/></linearGradient><linearGradient id="linear-gradient-2" x1="2267.94" y1="999.93" x2="1655.76" y2="5739.39" gradientUnits="userSpaceOnUse"><stop offset="0" stop-color="#ff9085"/><stop offset="1" stop-color="#fb6fbb"/></linearGradient><clipPath id="clip-path"><path class="cls-1" d="M2201,1602.41c-10,.88-19.5,1.91-28.2,2.75-27,2.63-86.19,19-106.6-7.87-33.65-44.37,51.83-119.6,73.35-153.4,26.62-41.8,59.6-88.35,64.95-139.13,8.14-77.22-44.76-181.68-110-222-90-55.63-215.85-17.77-296.75,36.84-117.21,79.11-199.56,209.61-233,345.91-36,146.91,13.66,299-.58,447.89-22.39,234-354.09-64.13-289.27,551.32,14.31,135.86,37.65,284.49,114,400.94,31.66,48.29,94.94,115.4,158,111.52,89.43-5.49,85.43-132,113.18-190.42,32.43-68.28,89-122.22,151.9-162.57,80-51.32,172.7-97.22,204.49-194.11,20.65-62.93-10.42-127.73-50.18-176.67-21.91-27-68.6-57.82-61.6-97.57,5.81-33,52.13-57.19,76.28-74.57,74.3-53.45,146.53-111.05,212.59-174.46,59.29-56.9,159.56-143.22,151.45-235.69C2338.44,1596.69,2261.54,1597,2201,1602.41Z"/></clipPath><clipPath id="clip-path-2"><path class="cls-2" d="M2696.93,1818.07c-31.3-112.77-130.37-198.18-243.71-227.67-69-18-153.26-24-223.65-11.77-99,17.24-180.72,81.81-244.42,156.67-74.84,87.94-81.85,196.94-108.6,305.2-5.24,21.22-39.84,138.1-66,69.6-36.53-95.51-118-78.67-118-78.66-63.75,13.18-112.75,60-136.32,118.89-63,157.35-43.49,361.75-30.18,526.68,6.26,77.57,15.91,154.74,27.42,231.65a49.09,49.09,0,0,0,85.84,24.69c13-15.19,26.62-29.13,39.24-41.41,121.28-118,311.2-135.5,471.44-142.56,93.56-4.13,170.64-10.07,252.16-60.31,33.87-20.88,70.69-46.51,86.39-84.66,14.21-34.51,17-93.61-4.43-125.7-26.64-40-85.82-37.46-121.05-66.9-56.91-47.57,91.95-80.68,121.94-90.32,47.81-15.37,79.5-53.49,115.32-86.55,27.36-25.26,53.08-52.74,72.93-84.37C2733.83,2053.94,2726.39,1924.24,2696.93,1818.07Z"/></clipPath><linearGradient id="linear-gradient-5" x1="644.14" y1="1044.71" x2="788.62" y2="1172.98" gradientUnits="userSpaceOnUse"><stop offset="0" stop-color="#40447e"/><stop offset="1" stop-color="#3c3b6b"/></linearGradient><linearGradient id="linear-gradient-6" x1="806.05" y1="1175.29" x2="1843.99" y2="1175.29" xlink:href="#linear-gradient-5"/><linearGradient id="linear-gradient-7" x1="-39.16" y1="2156.42" x2="417.98" y2="2156.42" gradientUnits="userSpaceOnUse"><stop offset="0" stop-color="#aa80f9"/><stop offset="1" stop-color="#6165d7"/></linearGradient><linearGradient id="linear-gradient-8" x1="1254.94" y1="1705.24" x2="1511.35" y2="2966.5" xlink:href="#linear-gradient-7"/><linearGradient id="linear-gradient-9" x1="605.54" y1="2150.88" x2="688.84" y2="2150.88" gradientUnits="userSpaceOnUse"><stop offset="0" stop-color="#311944"/><stop offset="1" stop-color="#893976"/></linearGradient><linearGradient id="linear-gradient-10" x1="979.42" y1="2122.86" x2="1981.91" y2="2122.86" xlink:href="#linear-gradient-7"/><linearGradient id="linear-gradient-11" x1="1742.71" y1="1631.13" x2="1229.64" y2="1697.48" xlink:href="#linear-gradient-9"/><linearGradient id="linear-gradient-12" x1="2025.66" y1="1178.96" x2="1869.38" y2="1326.39" xlink:href="#linear-gradient-2"/><linearGradient id="linear-gradient-13" x1="1552.99" y1="3002.28" x2="1591.32" y2="3132.02" xlink:href="#linear-gradient-9"/><linearGradient id="linear-gradient-14" x1="1608.08" y1="2986" x2="1646.42" y2="3115.74" xlink:href="#linear-gradient-9"/><linearGradient id="linear-gradient-15" x1="1852.6" y1="2913.76" x2="1890.93" y2="3043.5" xlink:href="#linear-gradient-9"/><linearGradient id="linear-gradient-16" x1="1500.36" y1="3017.83" x2="1538.7" y2="3147.57" xlink:href="#linear-gradient-9"/><linearGradient id="linear-gradient-17" x1="1244.04" y1="3093.56" x2="1282.37" y2="3223.3" xlink:href="#linear-gradient-9"/><linearGradient id="linear-gradient-18" x1="1445.18" y1="3034.13" x2="1483.51" y2="3163.87" xlink:href="#linear-gradient-9"/><linearGradient id="linear-gradient-19" x1="1130.68" y1="3127.05" x2="1169.01" y2="3256.79" xlink:href="#linear-gradient-9"/><linearGradient id="linear-gradient-20" x1="1301.65" y1="3076.54" x2="1339.98" y2="3206.28" xlink:href="#linear-gradient-9"/><linearGradient id="linear-gradient-21" x1="1745.08" y1="2945.52" x2="1783.41" y2="3075.27" xlink:href="#linear-gradient-9"/><linearGradient id="linear-gradient-22" x1="1800.04" y1="2929.28" x2="1838.37" y2="3059.03" xlink:href="#linear-gradient-9"/><linearGradient id="linear-gradient-23" x1="1907.81" y1="2897.44" x2="1946.14" y2="3027.19" xlink:href="#linear-gradient-9"/><linearGradient id="linear-gradient-24" x1="1188.8" y1="3109.88" x2="1227.13" y2="3239.62" xlink:href="#linear-gradient-9"/><linearGradient id="linear-gradient-25" x1="1691.6" y1="2075.05" x2="748.02" y2="3142.47" xlink:href="#linear-gradient-5"/><linearGradient id="linear-gradient-26" x1="1584.78" y1="1980.62" x2="641.2" y2="3048.05" xlink:href="#linear-gradient-5"/><linearGradient id="linear-gradient-27" x1="1871.72" y1="2234.27" x2="928.14" y2="3301.7" xlink:href="#linear-gradient-5"/><linearGradient id="linear-gradient-28" x1="1793.74" y1="2165.34" x2="850.16" y2="3232.76" xlink:href="#linear-gradient-5"/><linearGradient id="linear-gradient-29" x1="1506.33" y1="1911.28" x2="562.75" y2="2978.7" xlink:href="#linear-gradient-5"/><linearGradient id="linear-gradient-30" x1="1900.65" y1="2259.84" x2="957.06" y2="3327.26" xlink:href="#linear-gradient-5"/><linearGradient id="linear-gradient-31" x1="1719.5" y1="2099.71" x2="775.92" y2="3167.14" xlink:href="#linear-gradient-5"/><linearGradient id="linear-gradient-32" x1="1399.56" y1="1816.89" x2="455.98" y2="2884.32" xlink:href="#linear-gradient-5"/><linearGradient id="linear-gradient-33" x1="2072.09" y1="2411.39" x2="1128.51" y2="3478.82" xlink:href="#linear-gradient-5"/><linearGradient id="linear-gradient-34" x1="1970.59" y1="2321.67" x2="1027.01" y2="3389.1" xlink:href="#linear-gradient-5"/><linearGradient id="linear-gradient-35" x1="1768.06" y1="2142.63" x2="824.47" y2="3210.06" xlink:href="#linear-gradient-5"/><linearGradient id="linear-gradient-36" x1="1610.36" y1="2003.24" x2="666.78" y2="3070.66" xlink:href="#linear-gradient-5"/><linearGradient id="linear-gradient-37" x1="1333.83" y1="1314.94" x2="2204.81" y2="1314.94" xlink:href="#linear-gradient-7"/><linearGradient id="linear-gradient-38" x1="933.62" y1="1314.55" x2="1784.5" y2="1314.55" xlink:href="#linear-gradient-5"/><linearGradient id="linear-gradient-39" x1="1633.14" y1="653.14" x2="1644.18" y2="1955.3" gradientUnits="userSpaceOnUse"><stop offset="0.49" stop-color="#ebeff2"/><stop offset="1" stop-color="#fff"/></linearGradient><linearGradient id="linear-gradient-40" x1="1629.44" y1="662.53" x2="1640.25" y2="1938.13" xlink:href="#linear-gradient-39"/><linearGradient id="linear-gradient-41" x1="1641.85" y1="649.08" x2="1653.07" y2="1973.2" xlink:href="#linear-gradient-39"/><linearGradient id="linear-gradient-42" x1="1285.89" y1="636.91" x2="1296.55" y2="1895.85" xlink:href="#linear-gradient-39"/><linearGradient id="linear-gradient-43" x1="1283.8" y1="660.26" x2="1293.96" y2="1859.37" xlink:href="#linear-gradient-39"/><linearGradient id="linear-gradient-44" x1="1291.23" y1="633.85" x2="1302.07" y2="1913.13" xlink:href="#linear-gradient-39"/><linearGradient id="linear-gradient-45" x1="951.74" y1="988.01" x2="1772.29" y2="988.01" xlink:href="#linear-gradient-39"/><linearGradient id="linear-gradient-46" x1="1305.27" y1="1878.44" x2="1389.09" y2="1878.44" gradientTransform="translate(2673.81 -14.57) rotate(70.67)" xlink:href="#linear-gradient-7"/><linearGradient id="linear-gradient-47" x1="1107.99" y1="1595.41" x2="1586.37" y2="1595.41" xlink:href="#linear-gradient-7"/><linearGradient id="linear-gradient-48" x1="1177.22" y1="1678.31" x2="1517.14" y2="1678.31" xlink:href="#linear-gradient-7"/><linearGradient id="linear-gradient-49" x1="1246.93" y1="1762.12" x2="1447.43" y2="1762.12" xlink:href="#linear-gradient-7"/><linearGradient id="linear-gradient-50" x1="2294.78" y1="2102.26" x2="745.35" y2="1960.43" gradientTransform="matrix(1, -0.03, 0.13, 0.99, 474.02, -191.43)" xlink:href="#linear-gradient-9"/><linearGradient id="linear-gradient-51" x1="929.86" y1="2012.62" x2="2977.39" y2="2088.78" gradientTransform="matrix(1, -0.04, 0.13, 0.99, 472.68, -185.27)" gradientUnits="userSpaceOnUse"><stop offset="0" stop-color="#e38ddd"/><stop offset="1" stop-color="#9571f6"/></linearGradient><linearGradient id="linear-gradient-52" x1="772" y1="1725.29" x2="1500.03" y2="2138.01" gradientTransform="matrix(1, -0.04, 0.13, 0.99, 472.68, -185.27)" gradientUnits="userSpaceOnUse"><stop offset="0" stop-color="#f57e53"/><stop offset="0" stop-color="#f68252"/><stop offset="0.04" stop-color="#f99a4d"/><stop offset="0.08" stop-color="#fcad49"/><stop offset="0.13" stop-color="#feba46"/><stop offset="0.2" stop-color="#ffc244"/><stop offset="0.32" stop-color="#ffc444"/><stop offset="0.45" stop-color="#fdb946"/><stop offset="0.69" stop-color="#f99c4c"/><stop offset="1" stop-color="#f36f56"/></linearGradient><linearGradient id="linear-gradient-53" x1="1031.32" y1="1908.31" x2="1173.4" y2="1908.31" gradientTransform="matrix(1, -0.03, 0.13, 0.99, 474.02, -191.43)" xlink:href="#linear-gradient-2"/><linearGradient id="linear-gradient-54" x1="1033.65" y1="1879.81" x2="1171.1" y2="1879.81" gradientTransform="matrix(1, -0.04, 0.13, 0.99, 472.68, -185.27)" xlink:href="#linear-gradient-2"/><linearGradient id="linear-gradient-55" x1="1033.55" y1="1912.04" x2="1171.01" y2="1912.04" gradientTransform="matrix(1, -0.04, 0.13, 0.99, 472.68, -185.27)" xlink:href="#linear-gradient-2"/><linearGradient id="linear-gradient-56" x1="1033.45" y1="1944.27" x2="1170.93" y2="1944.27" gradientTransform="matrix(1, -0.04, 0.13, 0.99, 472.68, -185.27)" xlink:href="#linear-gradient-2"/><linearGradient id="linear-gradient-57" x1="1063.55" y1="1908.49" x2="1141.86" y2="1908.49" gradientTransform="matrix(1, -0.03, 0.13, 0.99, 474.02, -191.43)" xlink:href="#linear-gradient-2"/><linearGradient id="linear-gradient-58" x1="935.48" y1="2281.07" x2="2956.32" y2="2356.25" gradientTransform="matrix(1, -0.04, 0.13, 0.99, 472.68, -185.27)" gradientUnits="userSpaceOnUse"><stop offset="0" stop-color="#fb6fbb"/><stop offset="1" stop-color="#ff9085"/></linearGradient><linearGradient id="linear-gradient-59" x1="1019.99" y1="2311.09" x2="1315.39" y2="2311.09" gradientTransform="matrix(1, -0.03, 0.13, 0.99, 474.02, -191.43)" xlink:href="#linear-gradient-58"/><linearGradient id="linear-gradient-60" x1="1455.03" y1="2298.15" x2="1816.77" y2="2298.15" gradientTransform="matrix(1, -0.03, 0.13, 0.99, 474.02, -191.43)" xlink:href="#linear-gradient-58"/><linearGradient id="linear-gradient-61" x1="1803.72" y1="1881.04" x2="1989.77" y2="1881.04" gradientTransform="matrix(0.97, -0.14, 0.25, 0.98, 303.81, -34.24)" xlink:href="#linear-gradient-2"/><linearGradient id="linear-gradient-62" x1="1747.86" y1="3082.32" x2="1797.54" y2="3082.32" gradientTransform="translate(1125.96)" gradientUnits="userSpaceOnUse"><stop offset="0" stop-color="#ffc444"/><stop offset="1" stop-color="#f36f56"/></linearGradient><linearGradient id="linear-gradient-63" x1="1731.22" y1="3162.85" x2="1712.69" y2="2972.28" gradientTransform="translate(1125.96)" xlink:href="#linear-gradient-5"/><linearGradient id="linear-gradient-64" x1="2052.78" y1="3183.85" x2="2100.97" y2="3183.85" xlink:href="#linear-gradient-62"/><linearGradient id="linear-gradient-65" x1="1748.45" y1="3161.18" x2="1729.92" y2="2970.6" gradientTransform="translate(1125.96)" xlink:href="#linear-gradient-5"/><linearGradient id="linear-gradient-66" x1="1672.18" y1="2880.6" x2="2102.95" y2="2880.6" gradientTransform="translate(1125.96)" xlink:href="#linear-gradient-5"/><linearGradient id="linear-gradient-67" x1="1772.2" y1="2149.83" x2="1651.77" y2="2687.14" gradientTransform="translate(1125.96)" gradientUnits="userSpaceOnUse"><stop offset="0" stop-color="#ab316d"/><stop offset="1" stop-color="#792d3d"/></linearGradient><linearGradient id="linear-gradient-68" x1="1551.69" y1="2102.67" x2="1431.26" y2="2639.98" xlink:href="#linear-gradient-67"/><linearGradient id="linear-gradient-69" x1="582.89" y1="1737.92" x2="601.74" y2="1905.67" gradientTransform="matrix(0.98, -0.2, 0.2, 0.98, 1958.07, 340.43)" xlink:href="#linear-gradient-62"/><linearGradient id="linear-gradient-70" x1="1018.7" y1="2052.89" x2="1069.32" y2="2244.45" xlink:href="#linear-gradient-62"/><linearGradient id="linear-gradient-71" x1="1534.77" y1="2230.24" x2="1648.34" y2="2230.24" xlink:href="#linear-gradient-62"/><linearGradient id="linear-gradient-72" x1="1590.04" y1="2184.2" x2="1652.31" y2="2210.08" xlink:href="#linear-gradient-62"/><linearGradient id="linear-gradient-73" x1="1586.83" y1="2191.91" x2="1649.11" y2="2217.79" xlink:href="#linear-gradient-62"/><linearGradient id="linear-gradient-74" x1="1609.11" y1="2115.54" x2="1488.67" y2="2652.85" xlink:href="#linear-gradient-67"/></defs><g class="cls-3"><g id="Background"><rect class="cls-4" width="3710" height="3710"/><rect class="cls-5" width="3710" height="3710"/></g><g id="Illustration"><path class="cls-6" d="M1623.63,3127.61C929,3022.42,364.53,2365.68,467.08,1635.73c87.49-622.53,633.29-1107,1287.8-1152.74Q1826,478,1898.6,480c365.12,10.55,689.54,156.59,929.48,377.6,238.81,219.94,394,514.11,422.21,822.74C3325.52,2501.52,2487.57,3258.45,1623.63,3127.61Z"/><path class="cls-1" d="M2201,1602.41c-10,.88-19.5,1.91-28.2,2.75-27,2.63-86.19,19-106.6-7.87-33.65-44.37,51.83-119.6,73.35-153.4,26.62-41.8,59.6-88.35,64.95-139.13,8.14-77.22-44.76-181.68-110-222-90-55.63-215.85-17.77-296.75,36.84-117.21,79.11-199.56,209.61-233,345.91-36,146.91,13.66,299-.58,447.89-22.39,234-354.09-64.13-289.27,551.32,14.31,135.86,37.65,284.49,114,400.94,31.66,48.29,94.94,115.4,158,111.52,89.43-5.49,85.43-132,113.18-190.42,32.43-68.28,89-122.22,151.9-162.57,80-51.32,172.7-97.22,204.49-194.11,20.65-62.93-10.42-127.73-50.18-176.67-21.91-27-68.6-57.82-61.6-97.57,5.81-33,52.13-57.19,76.28-74.57,74.3-53.45,146.53-111.05,212.59-174.46,59.29-56.9,159.56-143.22,151.45-235.69C2338.44,1596.69,2261.54,1597,2201,1602.41Z"/><g class="cls-7"><g class="cls-8"><path class="cls-4" d="M1724.35,3137.94a4.51,4.51,0,0,1-2.63-.84c-152.65-109-224.5-275.52-219.63-509,4.24-203.51,63.89-424.33,121.58-637.88,45.43-168.17,88.35-327,96.16-454.6,6.26-102.22,35.44-194.94,86.75-275.58,41-64.5,96.21-121.42,164-169.19,115.3-81.26,228.86-108.24,230-108.5a4.54,4.54,0,0,1,2,8.84c-1.12.26-113.21,26.93-227.08,107.26-104.82,74-232.71,209.92-246.65,437.73-7.87,128.5-50.9,287.78-96.45,456.4-113.53,420.24-242.21,896.55,94.56,1137.09a4.54,4.54,0,0,1-2.65,8.23Z"/><path class="cls-4" d="M1728,1501.16a4.8,4.8,0,0,1-1.39-.22c-1.22-.4-30.28-10.08-62.07-47.88-29-34.46-65.86-100.07-76.91-216.89a4.54,4.54,0,0,1,9-.86c10.78,114,46.37,177.83,74.32,211.31,30.16,36.12,58.13,45.59,58.41,45.68a4.54,4.54,0,0,1-1.4,8.86Z"/><path class="cls-4" d="M1682.57,1786.39a4.54,4.54,0,0,1-.46-9.05c.78-.08,78.65-8.45,180.69-53.48a796.21,796.21,0,0,0,335-278.89,4.54,4.54,0,1,1,7.49,5.13,805.25,805.25,0,0,1-339.22,282.21c-103.28,45.52-182.3,54-183.08,54.06A3.77,3.77,0,0,1,1682.57,1786.39Z"/><path class="cls-4" d="M1518.74,2482.36a4.44,4.44,0,0,1-1.51-.26c-3.16-1.11-78.12-28.16-140-103.93-36.39-44.51-60.47-96.6-71.6-154.83-13.86-72.56-7.49-154.84,18.94-244.57a4.54,4.54,0,0,1,8.71,2.56c-58.76,199.49-4.86,322.61,50.71,390.77,60.29,74,135.56,101.18,136.31,101.44a4.54,4.54,0,0,1-1.51,8.82Z"/><path class="cls-4" d="M1545.14,2329.19a4.54,4.54,0,0,1-.58-9c3.62-.48,363.92-49.42,452.2-185.76a4.54,4.54,0,0,1,7.62,4.94c-38.13,58.88-127,108.73-264.19,148.17-101.7,29.24-193.53,41.53-194.45,41.65A4,4,0,0,1,1545.14,2329.19Z"/></g></g><path class="cls-2" d="M2696.93,1818.07c-31.3-112.77-130.37-198.18-243.71-227.67-69-18-153.26-24-223.65-11.77-99,17.24-180.72,81.81-244.42,156.67-74.84,87.94-81.85,196.94-108.6,305.2-5.24,21.22-39.84,138.1-66,69.6-36.53-95.51-118-78.67-118-78.66-63.75,13.18-112.75,60-136.32,118.89-63,157.35-43.49,361.75-30.18,526.68,6.26,77.57,15.91,154.74,27.42,231.65a49.09,49.09,0,0,0,85.84,24.69c13-15.19,26.62-29.13,39.24-41.41,121.28-118,311.2-135.5,471.44-142.56,93.56-4.13,170.64-10.07,252.16-60.31,33.87-20.88,70.69-46.51,86.39-84.66,14.21-34.51,17-93.61-4.43-125.7-26.64-40-85.82-37.46-121.05-66.9-56.91-47.57,91.95-80.68,121.94-90.32,47.81-15.37,79.5-53.49,115.32-86.55,27.36-25.26,53.08-52.74,72.93-84.37C2733.83,2053.94,2726.39,1924.24,2696.93,1818.07Z"/><g class="cls-9"><g class="cls-8"><path class="cls-4" d="M1534.62,2989.11a4.42,4.42,0,0,1-1.93-.44,4.53,4.53,0,0,1-2.17-6c1.49-3.17,151.67-320.5,359-645.75,121.8-191.11,239.2-347.56,349-465,137.62-147.24,263.72-233.36,374.8-256a4.54,4.54,0,0,1,1.81,8.89c-109.2,22.23-233.67,107.44-370,253.28-109.38,117-226.44,273-347.94,463.67-207,324.77-356.9,641.58-358.39,644.74A4.56,4.56,0,0,1,1534.62,2989.11Z"/><path class="cls-4" d="M2074.38,2081a4.37,4.37,0,0,1-.72-.06,4.54,4.54,0,0,1-3.77-5.2c.69-4.28,67.56-428.79,1.16-500.42a4.54,4.54,0,1,1,6.65-6.17c69.39,74.84,4,490.37,1.16,508A4.55,4.55,0,0,1,2074.38,2081Z"/><path class="cls-4" d="M2868,1861.19a4.5,4.5,0,0,1-2.4-.69c-178-111.26-548.38-53.15-552.11-52.55a4.54,4.54,0,0,1-1.44-9c.94-.15,95.1-15.13,210.23-16,106.52-.84,253.43,10.64,348.13,69.83a4.54,4.54,0,0,1-2.41,8.38Z"/><path class="cls-4" d="M1684,2699.27a4.51,4.51,0,0,1-4.43-5.56c48.59-210-133.6-516.1-135.45-519.17a4.54,4.54,0,0,1,7.78-4.68c.47.77,47,78.61,86.92,181.65,36.9,95.35,75.46,232.48,49.59,344.25A4.53,4.53,0,0,1,1684,2699.27Z"/><path class="cls-4" d="M1834.66,2438a4.54,4.54,0,0,1-1.42-8.85c1.63-.54,165.06-54.14,363-93,183-35.9,433.87-66.15,589.6-6.38a4.54,4.54,0,0,1-3.25,8.48c-153.73-59-402.76-28.87-584.6,6.81-197.39,38.72-360.28,92.14-361.91,92.68A4.69,4.69,0,0,1,1834.66,2438Z"/></g></g><path class="cls-10" d="M753.61,1111l108.69-7.3L868,1219.13H688.84l39-88.47A33.67,33.67,0,0,1,753.61,1111Z"/><path class="cls-11" d="M846.18,1117.72a25,25,0,0,1,23.94-15l897.08,36a33.64,33.64,0,0,1,28.35,17.84l48.44,91.31L806.05,1209.54Z"/><path class="cls-12" d="M522.15,1280V3013.56a82.8,82.8,0,0,0,63.68,80.57l187.79,44.59L979.29,1723.35,779.54,1174.12l-185.12,23.77A82.82,82.82,0,0,0,522.15,1280Z"/><path class="cls-13" d="M721.18,1246.26V3065.52c0,41.9,35.57,75,87.9,95.95l1116.45-81c27.18-26.74,56.38-58.14,56.38-96V1295.34a72.14,72.14,0,0,0-69-72.07L796.48,1174.19A72.14,72.14,0,0,0,721.18,1246.26Z"/><path class="cls-14" d="M636.5,3048.06V1261.73c0-31,23.34-62.36,52.34-76L655.67,1190a76.41,76.41,0,0,0-50.13,71.7V3048.06a76.37,76.37,0,0,0,25.26,56.75L677.9,3116A76.47,76.47,0,0,1,636.5,3048.06Z"/><path class="cls-15" d="M1912.94,1223.27l-933.52-41c.26,11.14,1,22.46,2.39,34,25.09,208.81,219.88,242.17,294.87,474.74,68.71,213.1-69.49,263.73,11.79,451.15,76.17,175.62,218.4,179.31,303.72,401,37.43,97.28,18.54,118.65,50.12,221.15,27,87.69,77.62,191.2,176,299.24l96.73-7a72.15,72.15,0,0,0,66.92-72V1295.34A72.14,72.14,0,0,0,1912.94,1223.27Z"/><path class="cls-16" d="M893,1433.53v492a63.22,63.22,0,0,0,63.22,63.22h824.51a63.21,63.21,0,0,0,63.22-63.22V1471.88a63.22,63.22,0,0,0-60.28-63.16L959.2,1370.38A63.22,63.22,0,0,0,893,1433.53Z"/><path class="cls-17" d="M1815.41,1925.51V1471.88a63.23,63.23,0,0,0-60.29-63.16L946.25,1371.1A63.24,63.24,0,0,0,893,1433.53v492a63.22,63.22,0,0,0,63.22,63.22h795.93A63.22,63.22,0,0,0,1815.41,1925.51Z"/><path class="cls-18" d="M1522.59,1476.07v29.68a23.84,23.84,0,0,0,23,23.83l194.1,7.1a23.85,23.85,0,0,0,24.72-23.83v-29.68a23.85,23.85,0,0,0-23-23.83l-194.09-7.1A23.85,23.85,0,0,0,1522.59,1476.07Z"/><path class="cls-19" d="M1908.86,1313.48c0,16.7-11.55,30.23-25.8,30.23s-25.8-13.53-25.8-30.23,11.55-30.22,25.8-30.22S1908.86,1296.79,1908.86,1313.48Z"/><path class="cls-20" d="M1525.33,2445.18l-1-73.34a46.3,46.3,0,0,0-46.91-45.68l-200,2.65a46.3,46.3,0,0,0-45.68,46.91l1,76.38a46.3,46.3,0,0,0,47.61,45.67l199.93-5.7A46.3,46.3,0,0,0,1525.33,2445.18Z"/><path class="cls-21" d="M1228.84,2152.86l1.26,94.89a46.3,46.3,0,0,0,46.91,45.68l200-2.65a46.3,46.3,0,0,0,45.68-46.91l-1.23-92.24a46.29,46.29,0,0,0-46.29-45.68h-200A46.29,46.29,0,0,0,1228.84,2152.86Z"/><path class="cls-22" d="M1560.68,2442.76a46.32,46.32,0,0,0,47.62,45.67l204-5.82a32.23,32.23,0,0,0,31.32-32.07c.15-33.61.35-82.33.35-82.33a46.29,46.29,0,0,0-46.91-46.29l-191.67,2.54a46.29,46.29,0,0,0-45.67,46.91Z"/><path class="cls-23" d="M1234.51,2580.08l1,76.27a46.3,46.3,0,0,0,48.32,45.64l199.89-8.73a46.3,46.3,0,0,0,44.27-46.87l-1-73.23a46.31,46.31,0,0,0-47.61-45.67l-199.93,5.7A46.29,46.29,0,0,0,1234.51,2580.08Z"/><path class="cls-24" d="M893,2461.17a46.3,46.3,0,0,0,47.62,46.28l211.82-6a46.3,46.3,0,0,0,45-46.89l-1-78.33a46.3,46.3,0,0,0-46.91-45.68l-221.3,2.94a35.48,35.48,0,0,0-35,35.41C893.11,2406.54,893,2461.17,893,2461.17Z"/><path class="cls-25" d="M1530.92,2866.6l-1.22-92.18a46.3,46.3,0,0,0-48.31-45.64l-199.89,8.73a46.31,46.31,0,0,0-44.28,46.87l1.28,96a46.29,46.29,0,0,0,49.19,45.59l199.84-12.54A46.3,46.3,0,0,0,1530.92,2866.6Z"/><path class="cls-26" d="M1201.9,2788.74a46.3,46.3,0,0,0-48.32-45.64l-226,9.88a35.5,35.5,0,0,0-34,35.27c-.23,43.41-.58,113.2-.58,113.2a46.3,46.3,0,0,0,49.2,46.21L1159.81,2934a46.29,46.29,0,0,0,43.39-46.82Z"/><path class="cls-27" d="M1194.72,2248.22l-1.28-96.59a46.3,46.3,0,0,0-46.3-45.68H939.34a46.29,46.29,0,0,0-46.3,46.29v99.37a46.3,46.3,0,0,0,46.91,46.3l209.09-2.78A46.3,46.3,0,0,0,1194.72,2248.22Z"/><path class="cls-28" d="M1565,2770.06l1.19,89.73a46.3,46.3,0,0,0,49.2,45.6l185.18-11.63a46.3,46.3,0,0,0,43.39-46.21V2761.3a46.3,46.3,0,0,0-48.32-46.26l-186.37,8.15A46.3,46.3,0,0,0,1565,2770.06Z"/><path class="cls-29" d="M1844,2564.74a46.3,46.3,0,0,0-47.61-46.28l-189,5.39a46.3,46.3,0,0,0-45,46.89l.95,71.29a46.3,46.3,0,0,0,48.31,45.64l201-8.78a32.23,32.23,0,0,0,30.83-32C1843.7,2613.45,1844,2564.74,1844,2564.74Z"/><path class="cls-30" d="M1558,2243.4a46.3,46.3,0,0,0,46.91,45.68l207.09-2.75a32.21,32.21,0,0,0,31.81-32.15c.07-39.53.14-101.94.14-101.94A46.29,46.29,0,0,0,1797.7,2106H1603.13a46.3,46.3,0,0,0-46.3,46.91Z"/><path class="cls-31" d="M1199.16,2582.5a46.32,46.32,0,0,0-47.62-45.67l-223.65,6.38a35.49,35.49,0,0,0-34.5,35.33c-.14,37.47-.35,92.17-.35,92.17A46.3,46.3,0,0,0,941.36,2717l214.56-9.38a46.28,46.28,0,0,0,44.27-46.86Z"/><path class="cls-32" d="M1540.89,2446.3l-1-73.34a46.3,46.3,0,0,0-46.91-45.68l-200,2.66a46.3,46.3,0,0,0-45.68,46.9l1,76.38a46.3,46.3,0,0,0,47.61,45.67l199.93-5.7A46.3,46.3,0,0,0,1540.89,2446.3Z"/><path class="cls-33" d="M1244.4,2154l1.26,94.9a46.29,46.29,0,0,0,46.9,45.67l200-2.65a46.3,46.3,0,0,0,45.68-46.91l-1.22-92.24a46.29,46.29,0,0,0-46.29-45.68h-200A46.29,46.29,0,0,0,1244.4,2154Z"/><path class="cls-34" d="M1576.24,2443.88a46.3,46.3,0,0,0,47.61,45.67l204-5.81a32.23,32.23,0,0,0,31.31-32.08c.15-33.61.36-82.33.36-82.33a46.29,46.29,0,0,0-46.91-46.29L1621,2325.58a46.3,46.3,0,0,0-45.68,46.91Z"/><path class="cls-35" d="M1250.07,2581.2l1,76.28a46.3,46.3,0,0,0,48.32,45.64l199.89-8.74a46.3,46.3,0,0,0,44.27-46.87l-1-73.23a46.3,46.3,0,0,0-47.62-45.66L1295,2534.31A46.29,46.29,0,0,0,1250.07,2581.2Z"/><path class="cls-36" d="M908.6,2462.29a46.3,46.3,0,0,0,47.61,46.28l211.83-6a46.29,46.29,0,0,0,45-46.89l-1-78.33a46.29,46.29,0,0,0-46.9-45.68l-221.3,2.94a35.5,35.5,0,0,0-35,35.42C908.67,2407.66,908.6,2462.29,908.6,2462.29Z"/><path class="cls-37" d="M1546.48,2867.72l-1.22-92.18a46.3,46.3,0,0,0-48.32-45.64l-199.89,8.74a46.3,46.3,0,0,0-44.27,46.86l1.27,96a46.31,46.31,0,0,0,49.2,45.59l199.84-12.55A46.3,46.3,0,0,0,1546.48,2867.72Z"/><path class="cls-38" d="M1217.45,2789.87a46.29,46.29,0,0,0-48.31-45.64l-226,9.87a35.5,35.5,0,0,0-34,35.28c-.23,43.4-.58,113.19-.58,113.19a46.3,46.3,0,0,0,49.2,46.21l217.57-13.66a46.3,46.3,0,0,0,43.39-46.82Z"/><path class="cls-39" d="M1210.28,2249.35l-1.29-96.6a46.29,46.29,0,0,0-46.29-45.68H954.9a46.3,46.3,0,0,0-46.3,46.29v99.38A46.29,46.29,0,0,0,955.51,2299l209.09-2.78A46.3,46.3,0,0,0,1210.28,2249.35Z"/><path class="cls-40" d="M1580.59,2771.18l1.19,89.74a46.3,46.3,0,0,0,49.19,45.59l185.18-11.63a46.29,46.29,0,0,0,43.4-46.21v-86.25a46.3,46.3,0,0,0-48.32-46.25l-186.37,8.14A46.29,46.29,0,0,0,1580.59,2771.18Z"/><path class="cls-41" d="M1859.55,2565.86a46.29,46.29,0,0,0-47.62-46.27l-189,5.38a46.29,46.29,0,0,0-45,46.89l1,71.29a46.29,46.29,0,0,0,48.31,45.64l201-8.78a32.21,32.21,0,0,0,30.83-32C1859.25,2614.57,1859.55,2565.86,1859.55,2565.86Z"/><path class="cls-42" d="M1573.59,2244.52a46.3,46.3,0,0,0,46.91,45.68l207.1-2.75a32.21,32.21,0,0,0,31.81-32.15c.07-39.53.14-101.94.14-101.94a46.3,46.3,0,0,0-46.3-46.29H1618.69a46.3,46.3,0,0,0-46.3,46.91Z"/><path class="cls-43" d="M1214.71,2583.62A46.29,46.29,0,0,0,1167.1,2538l-223.66,6.37A35.49,35.49,0,0,0,909,2579.66c-.15,37.47-.35,92.17-.35,92.17a46.3,46.3,0,0,0,48.32,46.25l214.56-9.37a46.3,46.3,0,0,0,44.27-46.87Z"/><g class="cls-44"><path class="cls-6" d="M1813.25,2107.07H1618.69a46.3,46.3,0,0,0-46.3,46.91l1.2,90.54a46.3,46.3,0,0,0,46.91,45.68l207.1-2.75a32.21,32.21,0,0,0,31.81-32.15c.07-39.53.14-101.93.14-101.93A46.3,46.3,0,0,0,1813.25,2107.07Z"/><path class="cls-6" d="M1812.64,2323,1621,2325.58a46.3,46.3,0,0,0-45.68,46.91l1,71.39a46.3,46.3,0,0,0,47.61,45.67l204-5.81a32.23,32.23,0,0,0,31.31-32.08c.15-33.61.36-82.33.36-82.33A46.29,46.29,0,0,0,1812.64,2323Z"/><path class="cls-6" d="M1859.55,2848.67v-86.25a46.3,46.3,0,0,0-48.32-46.25L1631.39,2724c2.79,12,6.31,25.22,10.92,40.21a722,722,0,0,0,59,137.86l114.89-7.22A46.29,46.29,0,0,0,1859.55,2848.67Z"/><path class="cls-6" d="M1624.5,2688.77c.9,0,1.79.06,2.7,0l201-8.78a32.21,32.21,0,0,0,30.83-32c.23-33.48.53-82.18.53-82.18a46.29,46.29,0,0,0-47.62-46.28l-189,5.38a46.14,46.14,0,0,0-32.2,14.36c.49,1.26,1,2.49,1.48,3.76C1618.22,2610.75,1617,2641.71,1624.5,2688.77Z"/><path class="cls-6" d="M1493,2327.28l-53.14.71c34.54,31.46,69.41,65.48,101,113.6l-.91-68.63A46.3,46.3,0,0,0,1493,2327.28Z"/><path class="cls-6" d="M1538.21,2245l-1.22-92.24a46.29,46.29,0,0,0-46.29-45.68h-200a46.1,46.1,0,0,0-14.65,2.4c3.41,10.41,7.51,21.25,12.43,32.6,29.93,69,70.06,111.47,112.93,151l91.13-1.21A46.3,46.3,0,0,0,1538.21,2245Z"/></g><path class="cls-45" d="M1780.77,1988.73a63.21,63.21,0,0,0,63.22-63.22V1471.88a63.22,63.22,0,0,0-60.28-63.16l-735.54-34.21c70.76,92,177.42,158,228.51,316.41,45.73,141.83-.18,211.7-12,297.81Z"/><path class="cls-46" d="M1804.6,1332v1.78c0,15.25-13.18,27.08-28.41,26.43L960,1325.15c-14.44-.62-26.36-13.15-26.36-28v-1.73c0-14.83,11.5-26.38,26-25.78l816.71,33.59C1791.51,1303.88,1804.6,1316.75,1804.6,1332Z"/><path class="cls-47" d="M1784.5,1331.27v1.78c0,15.23-12,27-27.22,26.4l-797.6-34.3c-14.44-.62-26.06-13.15-26.06-28v-1.73c0-14.83,11.5-26.38,26-25.78L1757,1302.52A29,29,0,0,1,1784.5,1331.27Z"/><path class="cls-48" d="M1789.68,641.82l-24.32,620.64-1.36,35.16c-1.4,35.44-29.85,61.55-65,60l-754.18-34.09c41.06-4.54,43.21-41.13,43.21-41.13s1.74-642,1.78-664.08l52.51,58.21,39.81-43.82,41.66,46,15-16.3,25.66-27.9,42.22,46.42,41.55-44.58,42.8,46.83,42.47-44.94,43.38,47.21,43.37-45.33,44,47.66,44.36-45.72,44.6,48.09L1598.51,644l45.22,48.55L1690.08,646,1736,695Z"/><path class="cls-4" d="M1796.61,641.82l-24.32,620.64-1.36,35.16c-1.4,35.44-29.85,61.55-65,60l-754.18-34.09C992.8,1319,995,1282.41,995,1282.41s1.74-642,1.78-664.08l52.51,58.21,39.82-43.82,41.65,46,15-16.3,25.66-27.9,42.22,46.42,41.55-44.58,42.8,46.83,42.47-44.94,43.38,47.21,43.37-45.33,44,47.66,44.36-45.72,44.6,48.09L1605.44,644l45.22,48.55L1697,646l45.89,49Z"/><path class="cls-49" d="M1687.4,1019.46l-100.93-4a11.92,11.92,0,0,0-12.36,11.85l-1.38,46.9a13.66,13.66,0,0,0,12.82,14l100.63,3.58a12.06,12.06,0,0,0,12.53-11.85l1.64-46.31A13.76,13.76,0,0,0,1687.4,1019.46Z"/><path class="cls-50" d="M1684.07,1111l-100.5-3.77a11.72,11.72,0,0,0-12.17,11.65l-1.43,48.55a13.73,13.73,0,0,0,12.86,14l100.19,3.75a11.84,11.84,0,0,0,12.37-11.64l1.72-48.38A13.83,13.83,0,0,0,1684.07,1111Z"/><path class="cls-51" d="M1705.52,887.75l3.07-86.64a13.61,13.61,0,0,0-13-14.18l-102.07-2.64a12.46,12.46,0,0,0-12.62,12.4l-2.56,86.51c-.22,7.44,5.61,13.83,12.81,14l101.55,2.82A12.5,12.5,0,0,0,1705.52,887.75Z"/><path class="cls-52" d="M1480,1011.22,1097.39,996c-6.06-.24-10.87,4.74-10.92,11.3l-.34,50.26c-.05,7,5.37,13.11,11.86,13.34l381.37,13.56a11.56,11.56,0,0,0,11.9-11.62l1.23-47.74C1492.68,1017.82,1487,1011.5,1480,1011.22Z"/><path class="cls-53" d="M1477.5,1103.27,1096.58,1089c-6-.22-10.7,4.65-10.75,11.1l-.34,49.9c0,7,5.4,13.1,11.9,13.34l379.71,14.2a11.34,11.34,0,0,0,11.76-11.4l1.26-49C1490.31,1109.89,1484.54,1103.53,1477.5,1103.27Z"/><path class="cls-54" d="M1496.18,882.2l2.23-86.81c.19-7.4-5.51-13.7-12.56-13.88l-386.69-10c-6.18-.16-11.1,5.05-11.15,11.8l-.59,86.9c-.05,7.08,5.33,13.14,11.84,13.32L1484,894.25C1490.64,894.43,1496,889.12,1496.18,882.2Z"/><path class="cls-55" d="M1772.29,1262.46l-1.36,35.16c-1.4,35.44-29.85,61.55-65,60l-754.18-34.09C992.8,1319,995,1282.41,995,1282.41s1.74-642,1.78-664.08l52.51,58.21,39.82-43.82,41.65,46,15-16.3c29.85,26.34,58.14,62.59,79.48,112.39a425.15,425.15,0,0,1,24,75.77c2.92,13.17,5.87,25.6,8.86,37.41,12.5,49.06,25.77,86.78,40.88,116,19.16,37.12,41.29,60.64,68.39,76.46,15.32,9,32.26,15.48,51.17,20.57,21.14,5.75,44.79,9.78,71.43,13.55,23,3.28,48.33,6.4,76.27,10.32,1.65.23,3.31.46,5,.73,49.86,7.68,91.48,24.39,124.27,46.39C1733,1197.18,1758.86,1229.2,1772.29,1262.46Z"/><g class="cls-56"><circle class="cls-57" cx="1347.18" cy="1878.44" r="41.91" transform="translate(-871.3 2527.9) rotate(-70.67)"/><path class="cls-58" d="M1347.18,1527.17a349.86,349.86,0,0,0-229.13,85,28.56,28.56,0,0,0-1.75,41.88l1.18,1.19a28.35,28.35,0,0,0,38.54,1.55,292.46,292.46,0,0,1,382.32,0,28.35,28.35,0,0,0,38.54-1.55l1.18-1.19a28.56,28.56,0,0,0-1.74-41.88A349.89,349.89,0,0,0,1347.18,1527.17Z"/><path class="cls-59" d="M1347.18,1624.75a252.42,252.42,0,0,0-159.58,56.55,28.4,28.4,0,0,0-2,42.1l.2.21a28.66,28.66,0,0,0,38.34,1.74,196.25,196.25,0,0,1,246.08,0,28.66,28.66,0,0,0,38.34-1.74l.2-.21a28.41,28.41,0,0,0-2-42.1A252.47,252.47,0,0,0,1347.18,1624.75Z"/><path class="cls-60" d="M1255.4,1793.21c10.3,10.3,26.29,11.46,38.48,3.49a97.65,97.65,0,0,1,106.6,0c12.2,8,28.18,6.81,38.48-3.49l.13-.14a28.49,28.49,0,0,0-4.11-43.69,156,156,0,0,0-175.6,0,28.49,28.49,0,0,0-4.11,43.69Z"/></g><path class="cls-61" d="M2879.21,2097.3c2.62,19.26-8.87,36-25.58,37.21L1704,2219.43c-21.29,1.53-47.93-16.7-50.82-38.56L1546.58,1375c-2.88-21.77,19.36-40.78,40.83-40.49L2744,1329c16.87.22,32.75,16.09,35.35,35.28Z"/><path class="cls-62" d="M2901.42,2098.36c2.63,19.37-8.92,36.2-25.73,37.41l-1162.92,83.71c-21.39,1.54-41.34-15.17-44.25-37.14l-107.17-810.05c-2.89-21.88,12.46-39.54,34-39.25l1170-6.89c16.95.22,32.92,16.18,35.54,35.47Z"/><g class="cls-63"><path class="cls-6" d="M2010.66,1939.82l-201.33,7.8c-9.12.36-18-6.52-19.84-15.28l-9.8-48.06c-1.79-8.78,4.24-16.19,13.39-16.47l202-6.15c8.76-.27,17.31,6.52,19,15.09l9.34,46.92C2025.13,1932.22,2019.39,1939.48,2010.66,1939.82Z"/><path class="cls-6" d="M2267.19,1929.88l-190.49,7.38c-8.62.34-17.07-6.36-18.76-14.87l-9.26-46.75c-1.7-8.53,4-15.74,12.66-16l191.1-5.82c8.29-.26,16.39,6.36,18,14.7l8.84,45.66C2280.89,1922.5,2275.46,1929.56,2267.19,1929.88Z"/><path class="cls-6" d="M2510.23,1920.47l-180.51,7c-8.16.32-16.16-6.2-17.76-14.49l-8.78-45.5c-1.6-8.31,3.8-15.31,12-15.56l181.07-5.52c7.86-.24,15.53,6.21,17.06,14.34l8.38,44.46C2523.21,1913.29,2518.06,1920.17,2510.23,1920.47Z"/><path class="cls-6" d="M2740.8,1911.54l-171.28,6.63c-7.75.3-15.33-6.06-16.85-14.13l-8.32-44.31c-1.52-8.1,3.6-14.91,11.37-15.15l171.8-5.23c7.46-.23,14.74,6.06,16.2,14l8,43.33C2753.12,1904.55,2748.23,1911.25,2740.8,1911.54Z"/></g><path class="cls-64" d="M1888.72,1748l-96.33,2.6c-17.67.48-34.16-14.07-36.58-32.33l-13.21-99.57c-2.42-18.25,10.12-33.34,27.82-33.53l96.49-1c17.31-.19,33.39,14.35,35.78,32.32l13,98C1918.14,1732.47,1906,1747.56,1888.72,1748Z"/><path class="cls-65" d="M1880.73,1738.74,1798,1740.9c-16.33.43-31.47-13-33.71-29.84l-11.35-85.45c-2.23-16.87,9.29-30.76,25.64-30.95l82.88-1c16-.19,30.85,13.19,33.07,29.83l11.21,84.28C1907.93,1724.44,1896.74,1738.33,1880.73,1738.74ZM1779.11,1598.9c-14.08.17-24,12.13-22.06,26.65l11.34,85.42c1.92,14.53,15,26.06,29,25.69l82.76-2.12c13.79-.35,23.43-12.31,21.53-26.66l-11.23-84.31c-1.9-14.33-14.67-25.86-28.48-25.69Z"/><path class="cls-6" d="M1756.39,1636.17l137.49-2.18Z"/><polygon class="cls-66" points="1894.15 1636.08 1756.67 1638.29 1756.11 1634.04 1893.6 1631.89 1894.15 1636.08"/><path class="cls-6" d="M1760.65,1668.29l137.45-2.6Z"/><polygon class="cls-67" points="1898.37 1667.78 1760.93 1670.42 1760.37 1666.17 1897.82 1663.59 1898.37 1667.78"/><path class="cls-6" d="M1764.91,1700.42l137.41-3Z"/><polygon class="cls-68" points="1902.59 1699.48 1765.2 1702.55 1764.63 1698.3 1902.04 1695.29 1902.59 1699.48"/><path class="cls-69" d="M1856.36,1721.94l-38.39.93c-9.78.24-18.91-7.86-20.25-18l-9.88-74.39c-1.35-10.13,5.58-18.52,15.38-18.66l38.43-.52c9.7-.13,18.73,8,20.06,18l9.83,73.85C1872.88,1713.27,1866.05,1721.7,1856.36,1721.94Z"/><path class="cls-70" d="M1856.64,1724l-38.39,1c-10.94.27-21.08-8.73-22.59-20.06l-9.88-74.41c-1.5-11.32,6.2-20.65,17.16-20.8l38.43-.51c10.85-.15,20.87,8.88,22.37,20.12l9.82,73.84C1875.06,1714.41,1867.47,1723.78,1856.64,1724ZM1803.5,1614c-8.69.12-14.81,7.52-13.61,16.51l9.88,74.37c1.19,9,9.24,16.14,17.92,15.93l38.39-.93c8.6-.21,14.62-7.64,13.43-16.57l-9.82-73.87c-1.19-8.93-9.15-16.09-17.76-16Z"/><path class="cls-71" d="M2093.09,1991.8c-98.26,17.67-162.52,21.94-239.05.93-106.44-29.23-184.4-92.88-228.51-135.36l43,325c2.91,22,22.86,38.68,44.25,37.14l1162.92-83.71c16.81-1.21,28.36-18,25.73-37.41l-15.89-117.15c-176.77-102.76-308.31-110.69-398-97.17C2377.59,1900.61,2321.16,1950.79,2093.09,1991.8Z"/><g class="cls-72"><path class="cls-73" d="M2090.16,2087,1816,2103.87c-5.32.33-10.28-3.92-11-9.43l-6-45.43a9,9,0,0,1,8.35-10.55l274.34-15.1c5-.28,9.74,3.88,10.46,9.23l5.89,44.13C2098.73,2082.08,2095.2,2086.71,2090.16,2087Z"/><path class="cls-74" d="M2588.56,2057.69l-341.35,21c-5,.31-9.65-3.81-10.37-9.14l-5.88-44c-.72-5.33,2.79-9.92,7.78-10.2l341.58-18.8c4.65-.25,9,3.75,9.71,8.89l5.71,42.38C2596.44,2053,2593.21,2057.4,2588.56,2057.69Z"/></g><path class="cls-75" d="M2715.4,1532.82c6.94,51.31-29.1,93.85-80.42,95s-98.23-39.37-105.13-90.49,28.92-93.62,80.08-95S2708.46,1481.52,2715.4,1532.82Z"/><g class="cls-76"><path class="cls-6" d="M1970.79,1672.63c-5.45,6.29-15.68,6.6-22.87.64s-8.56-16-3-22.3,15.8-6.42,22.9-.42S1976.21,1666.38,1970.79,1672.63Z"/><path class="cls-6" d="M2029.31,1732.79a6.35,6.35,0,0,1-4.38-1.49,6,6,0,0,1-1.12-8.33c29.41-35.64,22-90.81-16.77-124.86-2.63-2.31-3.13-6-1.12-8.32s5.76-2.25,8.37.06c43.56,38.52,51.92,100.7,18.94,141A5.37,5.37,0,0,1,2029.31,1732.79Z"/><path class="cls-6" d="M2010.33,1717a6.52,6.52,0,0,1-4.45-1.53,6,6,0,0,1-1.13-8.39c22-26.26,16.53-67.18-12.38-92.25-2.67-2.31-3.17-6.07-1.13-8.39s5.84-2.3,8.49,0c33.88,29.58,40.34,77.66,14.59,108.62A5.46,5.46,0,0,1,2010.33,1717Z"/><path class="cls-6" d="M1991.07,1700.91a6.66,6.66,0,0,1-4.52-1.57,6,6,0,0,1-1.14-8.45c14.32-16.79,10.78-43.13-7.94-59.15-2.7-2.31-3.2-6.1-1.13-8.45s5.92-2.36,8.61,0c11.61,10,19,23.3,20.92,37.51s-1.89,27.77-10.75,38.25A5.53,5.53,0,0,1,1991.07,1700.91Z"/></g><polygon class="cls-77" points="2873.82 3083.18 2916.25 3103.91 2923.5 3084.74 2894.91 3060.74 2873.82 3083.18"/><path class="cls-78" d="M2916.91,3087.29a6.26,6.26,0,0,1,6.72-4.93,14.06,14.06,0,0,1,8.93,3.87c4.64,4.88,3.27,12.38.74,25.87-2.41,12.84-3.72,19.33-9.32,23.17s-12.29,3.06-17.12,2.52c-4.43-.49-11.44-1.28-13.55-6.1a7.91,7.91,0,0,1,.37-7.18c3-4.54,10.08-1.72,14.36-6.42.67-.75,1.18-1.58,2.58-7.63C2913.8,3096.63,2915.55,3093.53,2916.91,3087.29Z"/><path class="cls-79" d="M2798.14,2610.6c-14,9.83-104.36,75.47-115.14,193.55-8.27,90.56,35.34,156.2,48.16,174.88,52.23,76.11,126,102.06,148.86,109.15l23.07-22.06c-68.58-42.47-106.76-120.79-97.81-200.62A209,209,0,0,1,2941.07,2693c3.9-8.77,18-43,3-69.48C2924.67,2589.36,2861,2575.19,2798.14,2610.6Z"/><path class="cls-78" d="M3228.17,3206.76l4,6.48c0,11.06.18,20.4-10.12,16.38-10-3.92-36.4-9.34-42.24-11.72-12.41-5.06-24.34-13.7-25.37-19.47s34.31,0,45.35.24S3228.17,3206.76,3228.17,3206.76Z"/><path class="cls-80" d="M3212.75,3156.57l14.18,53.55s-9.1,5.37-24.9-8.73l-23.29-44.82Z"/><path class="cls-81" d="M2941.07,2693c3.91-8.77,18-43,3-69.48-18.36-32.38-76.54-46.71-136.08-18,13.58,38.81,9.31,60.13.1,72.56-14.1,19-40.42,18.28-45.66,38.71-5.92,23.11,24.11,38.36,17.87,60.54-5.59,19.91-31.73,14.66-48.64,37.72-20.28,27.67-15,79.36,9.93,107.2,19.27,21.52,40.57,17.95,52.61,42.68,9.46,19.44-1.43,26.33,6.94,43.67,14.82,30.71,55.49,22.75,78.42,54.6a64.19,64.19,0,0,1,8.7,17.11q7.42-7.11,14.86-14.21c-68.58-42.47-106.76-120.79-97.81-200.62A209,209,0,0,1,2941.07,2693Z"/><path class="cls-82" d="M2798.14,2622.11c29.73,73.24,102.36,212,164.59,304.54a1395,1395,0,0,0,222.51,256.67,58.76,58.76,0,0,0,43.67-5,579.16,579.16,0,0,0-28.78-92.31c-41.29-101.57-86.83-129.74-129-198.51-89.46-145.77-37.43-267.81-97.78-291C2949,2587.2,2876.88,2542.85,2798.14,2622.11Z"/><path class="cls-83" d="M2885.66,2005.13c1.65-14,1.08-8.2,2.74-22.21,9.1,4.53,116.72,60.53,132.91,183,12.05,91.19-31.4,182.73-111.17,234.25-155-112.35-179.76-147.89-173.37-159.48,9.73-17.66,89.08,25.15,146.9-16.54,30-21.64,39.21-55.22,42.65-67.77C2947.59,2078.78,2892,2012.42,2885.66,2005.13Z"/><path class="cls-84" d="M2201.14,2207.7l30.88-22.28a387.11,387.11,0,0,0,129.38,61.24c68,17.72,108.11,4.3,203.94-2.43,142.29-10,213.42-15,268.53,15.85,91.83,51.39,130.43,163.27,141.61,195.68,12.05,34.95,18.41,71.3,25.14,109.84,8.74,50,13,75.25,5.47,87.33-26.59,42.91-157.62,35.94-243.55-30.61-69.87-54.11-51.72-102.42-123.62-157.75-64.48-49.62-113.69-37.39-194.71-64.84C2378.3,2377.4,2289.7,2328.27,2201.14,2207.7Z"/><path class="cls-85" d="M2877.23,1928.36s21.7,21.51,22.73,45.61-16.47,32.68-16.47,32.68Z"/><path class="cls-86" d="M2224.06,2191.16l-17.5-21.9-24.81-23.1s-7.61,6.53,8.75,23.08a11.94,11.94,0,0,1,3.32,10.35c-.87,6.91-7.37,11.74-14.33,11.51l-41.08.3s23.55,22.34,62.73,16.3Z"/><path class="cls-87" d="M2664.4,2236.61a3.81,3.81,0,0,0-.83,7.5c26.31,6.89,67.14,16.41,81,13.13,4-1,25.83-7.43,28.35-8.51,6.12-2.63-9.62-6.85-15.3-10.33l-6.25-1.24a10.89,10.89,0,0,1-4.89-11.9l3.93-16-25.27-6.71L2719,2221a20.63,20.63,0,0,1-18.7,14.07Z"/><path class="cls-88" d="M2728.17,2219c-2-1.08-18-3-20.2-11.64-3-11.69,7.51-25.92,8.82-28.21,5.48-9.59,6.86-10.88,9.41-12.51l3.54-2.07.42-.15c2.25-.75,9.89-.8,11.43-.44,4.91,1.17,9.72,21.41,7.57,49.82.18,1.09.36,2.19.52,3.29C2750.11,2220,2728,2220,2728.17,2219Z"/><path class="cls-78" d="M2713.1,2162.74c1.85,5.36,9.17,10.9,12.43,13.38a14.46,14.46,0,0,1,3.12,3.56,4.49,4.49,0,0,1,.48,1.05c1.8,5.6-7.18,11.93-5.53,14.46,1.2,1.83,7.25-.45,7.93,1.13s-4.42,4.4-3.69,6.17c.54,1.34,3.64.2,5.53,2.27.94,1,.64,1.83,1.59,4.95a28.36,28.36,0,0,0,1.91,4.77c2.93,5.24,11.51,7.33,13.22,5.29.47-.56.09-1.06.6-3a15.34,15.34,0,0,1,1.78-3.83c1.85-2.93,6.21-4.95,10.62-8,8.18-5.62,10.48-10.51,11.18-12.16.07-.19.14-.36.2-.51s.22-.57.31-.85c1.85-6-2.88-12.43-5.43-15.43a82.33,82.33,0,0,0-18.81-16.22c-2.45-1.53-26.28-16.24-35-9C2712.4,2153.44,2711.85,2159.1,2713.1,2162.74Z"/><path class="cls-89" d="M2726.82,2193.19c2.22-2.92,6-.05,5.89,3.79s-3.87,7.75-7.47,6.91S2723.82,2197.12,2726.82,2193.19Z"/><path class="cls-90" d="M2897.39,2627.81c-22.7-27.54,10.8-81.91-21.17-113.82-23.19-23.14-49.44-3.15-82-26.47-43.36-31-18.71-89.32-58.23-105.87-41.78-17.5-79.09,23.2-132.35,2.65-35.1-13.55-28.86-35.07-63.52-55.59-60.13-35.58-113.65,8.6-195.87-2.64a205.64,205.64,0,0,1-46.28-12c54,46.72,104.67,71.57,146.29,85.67,81,27.45,130.23,15.22,194.71,64.84,71.9,55.33,53.75,103.64,123.62,157.75,85.93,66.55,217,73.52,243.55,30.61,3.1-5,4.17-12.31,3.77-22.66C2941.43,2650,2910.39,2643.57,2897.39,2627.81Z"/></g></g></svg>