<svg id="Layer_1" data-name="Layer 1" xmlns="http://www.w3.org/2000/svg" viewBox="0 0 276.57 294.57"><defs><style>.cls-1{fill:#242568;}.cls-2{fill:#f99c2a;}.cls-3{fill:#fff;}.cls-4{opacity:0.3;}.cls-5{fill:#f0699d;}.cls-6{fill:#541f44;}.cls-7{opacity:0.6;}.cls-8{opacity:0.7;}.cls-9{fill:#f9c817;}.cls-10{fill:#f89f1f;}.cls-11{fill:#f9f7c5;}.cls-12{fill:#ffcc23;}</style></defs><path class="cls-1" d="M276.06,306.53c-23-1.62-46-2.46-68.94-3s-46-.85-68.93-.82-45.95.34-68.93.94S23.31,305.1.33,306.77a.44.44,0,0,0-.33.48.41.41,0,0,0,.33.42c23,1.68,46,2.56,68.93,3.16s46,.93,68.93.94,46-.26,68.93-.82,46-1.41,68.94-3a.66.66,0,0,0,.51-.73A.64.64,0,0,0,276.06,306.53Z" transform="translate(0 -17.2)"/><path class="cls-2" d="M22.93,225.74C24.72,245.93,45,256,45.59,256.31h0c10.66-1,17.32-6.3,21.43-13.21h0l.06-.09a37.76,37.76,0,0,0,3.14-6.87c.2-.58.39-1.18.57-1.77,4.33-14.31,1.87-30.28,1.87-30.28-5.26-5.22-10.62-8.25-15.79-9.56C37.79,189.66,21.37,208.15,22.93,225.74Z" transform="translate(0 -17.2)"/><path class="cls-3" d="M22.93,225.74C24.72,245.93,45,256,45.59,256.31c-.67-.7-36.37-38.1,11.31-61.77C37.79,189.66,21.37,208.15,22.93,225.74Z" transform="translate(0 -17.2)"/><path class="cls-3" d="M45.59,223.58c2.44,18,21,19.5,21.45,19.53h0a38.85,38.85,0,0,0,3.77-8.73A53.39,53.39,0,0,1,45.59,223.58Z" transform="translate(0 -17.2)"/><g class="cls-4"><path class="cls-1" d="M40,196.18c-7,6.21-11.17,15.77-10.35,25.07,1.79,20.19,22.1,30.3,22.67,30.58h0a30.06,30.06,0,0,0,9.73-2.49,27,27,0,0,1-16.46,7h0C45,256,24.72,245.93,22.93,225.74,21.86,213.73,29.18,201.3,40,196.18Z" transform="translate(0 -17.2)"/></g><g class="cls-4"><path class="cls-1" d="M45.59,223.58C47.82,239.36,63.44,242.5,67.11,243a37.76,37.76,0,0,0,3.14-6.87C52.54,236,45.59,223.58,45.59,223.58Z" transform="translate(0 -17.2)"/></g><path class="cls-1" d="M45.61,258.3a2,2,0,0,1-.86-.2c-.9-.43-21.89-10.84-23.78-32.19-1.14-12.78,6.55-26.06,18.28-31.56,11.4-5.35,24.1-2.3,34.83,8.35a2,2,0,0,1,.56,1.1c.18,1.14,4.13,27.9-8.16,43.64-5,6.39-12,10-20.69,10.85Zm5.14-62.6a23.13,23.13,0,0,0-9.82,2.22c-10.28,4.83-17,16.45-16,27.65C26.44,243,43,252.67,46,254.3c7.34-.8,13.18-3.92,17.37-9.28,10.27-13.15,8-35.9,7.46-40C63.38,197.84,56.4,195.7,50.75,195.7Z" transform="translate(0 -17.2)"/><path class="cls-1" d="M67.64,244.22c-.46.05-.78.06-1.16.08s-.72,0-1.08,0a19.27,19.27,0,0,1-2.15-.17,24.51,24.51,0,0,1-4.2-1,21.32,21.32,0,0,1-7.53-4.31,18.44,18.44,0,0,1-4.92-7.07,18.1,18.1,0,0,1-.65-2c-.08-.35-.18-.68-.24-1l-.17-1a20.45,20.45,0,0,1-.18-2.06c0-.69,0-1.38.07-2.06l.32,0c.31.61.57,1.22.85,1.82l.43.88c.15.3.27.59.44.87.3.57.59,1.13.92,1.67s.66,1.06,1,1.58a21.52,21.52,0,0,0,4.84,5.25,21.2,21.2,0,0,0,6.26,3.25,28.53,28.53,0,0,0,3.47.92c.59.12,1.19.21,1.78.3l.89.11.83.08Z" transform="translate(0 -17.2)"/><path class="cls-2" d="M15.94,279.77c3,9.85,11.14,25.89,33.22,25.84H227c17.91,0,26.68-10.51,30.92-19.75a48,48,0,0,0,2.29-6.09,27.25,27.25,0,0,0,0-16.31c-6.26-19.12-26.8-8.32-26.8-8.32a25.74,25.74,0,0,0-4.88-6.64c-10.76-10.75-29.3-12.68-29.3-12.68-.53-42.21-16.3-53.1-16.3-53.1l-44.8,1.86h0l-44.76-1.86S77.49,193.61,77,235.82c0,0-25.77,2.69-34.19,19.32,0,0-20.54-10.8-26.8,8.32A27.33,27.33,0,0,0,15.94,279.77Z" transform="translate(0 -17.2)"/><path class="cls-3" d="M221.55,301.34a5.58,5.58,0,0,0,5.42,4.27h0c22.07.05,30.26-16,33.21-25.84a27.25,27.25,0,0,0,0-16.31c-5.45-16.65-21.73-10.61-25.85-8.77a5.57,5.57,0,0,0-1.71,1.18C229.13,259.37,215.23,275.41,221.55,301.34Z" transform="translate(0 -17.2)"/><path class="cls-3" d="M54.57,301.34a5.58,5.58,0,0,1-5.41,4.27h0c-22.08.05-30.27-16-33.22-25.84a27.33,27.33,0,0,1,0-16.31c5.45-16.65,21.73-10.61,25.85-8.77a5.45,5.45,0,0,1,1.71,1.18C47,259.37,60.89,275.41,54.57,301.34Z" transform="translate(0 -17.2)"/><path class="cls-3" d="M93.27,182.72l44.79,1.78,44.79-1.78s40.83,107.21-44.79,107.21S93.27,182.72,93.27,182.72Z" transform="translate(0 -17.2)"/><ellipse class="cls-5" cx="240.95" cy="280.85" rx="7.03" ry="5.99" transform="translate(-97.89 412.38) rotate(-73.07)"/><ellipse class="cls-5" cx="250.84" cy="273.44" rx="3.64" ry="3.1" transform="translate(-83.79 416.58) rotate(-73.07)"/><ellipse class="cls-5" cx="235.8" cy="269.55" rx="3.64" ry="3.1" transform="translate(-90.73 399.45) rotate(-73.07)"/><ellipse class="cls-5" cx="244.61" cy="267.61" rx="3.64" ry="3.1" transform="translate(-82.63 406.49) rotate(-73.07)"/><ellipse class="cls-5" cx="35.17" cy="280.85" rx="5.99" ry="7.03" transform="translate(-80.25 5.21) rotate(-16.93)"/><ellipse class="cls-5" cx="25.28" cy="273.44" rx="3.1" ry="3.64" transform="translate(-78.52 2.01) rotate(-16.93)"/><ellipse class="cls-5" cx="40.32" cy="269.55" rx="3.1" ry="3.64" transform="translate(-76.74 6.22) rotate(-16.93)"/><ellipse class="cls-5" cx="31.51" cy="267.61" rx="3.1" ry="3.64" transform="translate(-76.56 3.57) rotate(-16.93)"/><g class="cls-4"><path class="cls-1" d="M18.23,285.86s10.21,14.7,38,2.8c0,0,17.28,8.6,81.86,8.6s81.87-8.6,81.87-8.6c27.75,11.9,38-2.8,38-2.8h0c-4.24,9.24-13,19.79-30.92,19.75H49.16c-17.91,0-26.69-10.51-30.93-19.75Z" transform="translate(0 -17.2)"/></g><g class="cls-4"><path class="cls-6" d="M221.19,277.12c2.89-16.76,12.15-22,12.15-22a25.74,25.74,0,0,0-4.88-6.64C217.18,260.56,221.19,277.12,221.19,277.12Z" transform="translate(0 -17.2)"/></g><g class="cls-4"><path class="cls-6" d="M54.93,277.12c-2.89-16.76-12.15-22-12.15-22a25.74,25.74,0,0,1,4.88-6.64C58.94,260.56,54.93,277.12,54.93,277.12Z" transform="translate(0 -17.2)"/></g><path class="cls-1" d="M234.22,256.9,234,257l-.28.19c-.19.12-.38.28-.58.41s-.38.31-.57.46-.38.31-.56.48l-.56.5-.53.54c-.38.34-.7.74-1,1.11a30.63,30.63,0,0,0-3.55,5.09,40.05,40.05,0,0,0-2.64,5.8c-.4,1-.74,2-1.16,3.05s-.74,2.08-1.23,3.13h0a.09.09,0,0,1-.13.05.08.08,0,0,1-.06-.08,25.86,25.86,0,0,1-.14-3.41c0-.57.08-1.14.16-1.7a13.75,13.75,0,0,1,.24-1.69,31.85,31.85,0,0,1,.85-3.33c.18-.55.33-1.1.53-1.65s.43-1.07.65-1.61a27.92,27.92,0,0,1,3.53-6.08,21.77,21.77,0,0,1,2.43-2.66q.33-.31.69-.6c.24-.2.46-.4.72-.58s.5-.37.78-.54a4.1,4.1,0,0,1,.41-.26l.5-.28a2,2,0,0,1,1.93,3.42Z" transform="translate(0 -17.2)"/><path class="cls-1" d="M43.67,253.38l.5.28c.15.08.28.17.42.26a8.78,8.78,0,0,1,.77.54c.26.18.48.38.72.58a8,8,0,0,1,.69.6,21.77,21.77,0,0,1,2.43,2.66,28.37,28.37,0,0,1,3.54,6.08c.21.54.44,1.07.64,1.61s.36,1.1.53,1.65a27.55,27.55,0,0,1,.85,3.33,16,16,0,0,1,.25,1.69c.07.56.11,1.13.15,1.7a25.86,25.86,0,0,1-.14,3.41.09.09,0,0,1-.11.09.08.08,0,0,1-.08-.06h0a29.79,29.79,0,0,1-1.23-3.13c-.43-1-.77-2.05-1.16-3.05a42.32,42.32,0,0,0-2.64-5.8,30.68,30.68,0,0,0-3.56-5.09c-.34-.37-.66-.77-1-1.11l-.54-.54-.55-.5-.57-.48c-.19-.15-.38-.32-.57-.46s-.39-.29-.58-.41-.19-.14-.28-.19l-.22-.14-.16-.09a2,2,0,0,1,1.93-3.43Z" transform="translate(0 -17.2)"/><path class="cls-1" d="M227.06,307.58h-178c-23.35,0-31.95-17.06-35-27.25a29.1,29.1,0,0,1,.06-17.48h0c1.88-5.76,5.17-9.62,9.76-11.48,6.87-2.78,14.65-.22,18.07,1.21C50.14,238.93,69.13,235,75,234.09c.93-41.34,16.46-52.53,17.13-53a2,2,0,0,1,1.2-.34l44.71,1.86,44.71-1.86a2,2,0,0,1,1.2.34c.67.47,16.2,11.66,17.13,53,5.89.91,24.88,4.84,33.08,18.49,3.42-1.43,11.2-4,18.07-1.21,4.6,1.86,7.88,5.72,9.77,11.48a29.18,29.18,0,0,1,.05,17.48C259,290.52,250.42,307.58,227.06,307.58ZM49.15,303.64H227.06c20.81,0,28.5-15.31,31.23-24.44a25.26,25.26,0,0,0,0-15.13c-1.51-4.59-4-7.64-7.5-9-7.24-2.93-16.42,1.82-16.52,1.87a2,2,0,0,1-1.51.13,1.93,1.93,0,0,1-1.16-1c-7.84-15.49-32.38-18.22-32.63-18.25a2,2,0,0,1-1.77-1.94c-.45-36.31-12.46-48.87-15-51.12l-44.05,1.84H138l-44-1.84c-2.51,2.23-14.54,14.78-15,51.12a2,2,0,0,1-1.77,1.94c-.25,0-24.8,2.79-32.62,18.25a2,2,0,0,1-2.68.86c-.09-.05-9.32-4.79-16.53-1.86-3.46,1.41-6,4.45-7.48,9L16,263.46l1.88.61a25.18,25.18,0,0,0,0,15.13c2.73,9.13,10.43,24.44,31.23,24.44Z" transform="translate(0 -17.2)"/><path class="cls-2" d="M219.37,105.43s13.6-33.29,2.86-65.31a13.77,13.77,0,0,0-14.36-9.41c-8.51.84-21.32,4.26-35.29,15.58C172.58,46.29,207.53,58.56,219.37,105.43Z" transform="translate(0 -17.2)"/><g class="cls-7"><path class="cls-3" d="M219.06,42.07A13.79,13.79,0,0,0,205.45,31.6c-1.49,0-3.11.14-4.86.34a55.08,55.08,0,0,1,7.28-1.23,13.77,13.77,0,0,1,14.36,9.41c10.74,32-2.86,65.31-2.86,65.31a105.42,105.42,0,0,0-3.32-10.75C220,82.34,224.19,62.32,219.06,42.07Z" transform="translate(0 -17.2)"/></g><path class="cls-1" d="M219.37,107.41h-.14a2,2,0,0,1-1.78-1.48c-6-23.63-18-38.07-27.07-46-9.83-8.64-18.38-11.72-18.46-11.75a2,2,0,0,1-.59-3.39c14.44-11.7,27.74-15.17,36.35-16A15.65,15.65,0,0,1,224.1,39.49c10.85,32.35-2.34,65.3-2.91,66.69A2,2,0,0,1,219.37,107.41Zm-43-61.61a73.55,73.55,0,0,1,16.41,11c8.71,7.61,20,20.89,26.7,42,3.25-10.84,8.58-34.93.83-58a11.75,11.75,0,0,0-12.29-8.08C200.51,33.42,189.08,36.33,176.42,45.8Z" transform="translate(0 -17.2)"/><path class="cls-5" d="M212.48,93.53s9.46-23.13,2-45.38a9.58,9.58,0,0,0-10-6.54c-5.92.58-14.82,3-24.53,10.83C180,52.44,204.26,61,212.48,93.53Z" transform="translate(0 -17.2)"/><g class="cls-4"><path class="cls-1" d="M209.88,55.09a9.56,9.56,0,0,0-10-6.54A42.59,42.59,0,0,0,183.32,54,28.64,28.64,0,0,0,180,52.44c9.71-7.87,18.61-10.25,24.53-10.83a9.58,9.58,0,0,1,10,6.54c7.46,22.25-2,45.38-2,45.38-.4-1.59-.84-3.12-1.31-4.6C213,80.14,214,67.48,209.88,55.09Z" transform="translate(0 -17.2)"/></g><path class="cls-1" d="M212.48,94.94h-.1a1.42,1.42,0,0,1-1.26-1.06c-7.93-31.4-31.38-40-31.62-40.11a1.42,1.42,0,0,1-.92-1.09,1.44,1.44,0,0,1,.5-1.34c10-8.13,19.29-10.54,25.28-11.13a10.94,10.94,0,0,1,11.45,7.49c7.54,22.49-1.63,45.4-2,46.36A1.41,1.41,0,0,1,212.48,94.94ZM182.73,52.08c6,2.86,22.26,12.55,29.87,36.69,2.26-7.59,5.89-24.22.54-40.17A8.14,8.14,0,0,0,204.63,43C199.4,43.53,191.49,45.55,182.73,52.08Z" transform="translate(0 -17.2)"/><path class="cls-2" d="M61.57,91.15S54.16,56,70.47,26.39a13.78,13.78,0,0,1,15.82-6.68c8.22,2.35,20.21,8,31.93,21.66C118.22,41.37,81.63,47.16,61.57,91.15Z" transform="translate(0 -17.2)"/><g class="cls-8"><path class="cls-3" d="M73.24,28.88A13.79,13.79,0,0,1,88.51,21c1.46.3,3,.7,4.72,1.21a54,54,0,0,0-6.94-2.52,13.78,13.78,0,0,0-15.82,6.68C54.16,56,61.57,91.15,61.57,91.15a108.16,108.16,0,0,1,5.19-10C65.09,68.32,64.57,47.87,73.24,28.88Z" transform="translate(0 -17.2)"/></g><path class="cls-1" d="M61.57,93.13l-.22,0a2,2,0,0,1-1.71-1.55c-.31-1.47-7.37-36.25,9.1-66.13a15.67,15.67,0,0,1,18.09-7.62c8.32,2.38,20.78,8.18,32.88,22.28a2,2,0,0,1-1.19,3.23c-.08,0-9,1.51-20.26,8.24C87.92,57.76,73.47,69.8,63.36,92A2,2,0,0,1,61.57,93.13Zm21-72A11.81,11.81,0,0,0,72.2,27.34c-11.77,21.34-10.85,46-9.6,57.24C72.93,65,86.46,54,96.4,48.07a73.94,73.94,0,0,1,18.12-7.87C103.77,28.62,93.05,23.69,85.75,21.6A11.91,11.91,0,0,0,82.53,21.15Z" transform="translate(0 -17.2)"/><path class="cls-5" d="M70.48,80.68s-5.15-24.45,6.18-45a9.57,9.57,0,0,1,11-4.64c5.72,1.63,14,5.57,22.19,15.05C109.84,46.09,84.41,50.11,70.48,80.68Z" transform="translate(0 -17.2)"/><g class="cls-4"><path class="cls-1" d="M79.93,43.33a9.59,9.59,0,0,1,11-4.64A42.66,42.66,0,0,1,106.27,47a27.51,27.51,0,0,1,3.57-.91C101.7,36.61,93.37,32.67,87.65,31a9.57,9.57,0,0,0-11,4.64c-11.33,20.55-6.18,45-6.18,45,.68-1.49,1.38-2.92,2.12-4.29C72.42,67.42,73.62,54.77,79.93,43.33Z" transform="translate(0 -17.2)"/></g><path class="cls-1" d="M70.48,82.09h-.16A1.4,1.4,0,0,1,69.1,81c-.22-1-5.13-25.2,6.33-46A10.93,10.93,0,0,1,88,29.68c5.79,1.66,14.45,5.69,22.87,15.49a1.41,1.41,0,0,1-.85,2.31c-.25,0-24.87,4.32-38.3,33.78A1.41,1.41,0,0,1,70.48,82.09ZM85,32.08a8.15,8.15,0,0,0-7.14,4.28C69.77,51.09,70.36,68.11,71.22,76c11.82-22.38,29.52-29,36-30.74-7.45-8-14.87-11.4-19.92-12.85A8.16,8.16,0,0,0,85,32.08Z" transform="translate(0 -17.2)"/><path class="cls-2" d="M131.61,196.16c61,5.53,104.39-23.48,91.49-71.53-.33-1.22-.69-2.45-1.09-3.7a19,19,0,0,1-.84-4.17c-1.08-12-9.74-70.82-75.43-76.76S61,90.4,57.76,102a19.25,19.25,0,0,1-1.57,4C31.24,152.46,69.05,190.5,131.61,196.16Z" transform="translate(0 -17.2)"/><path class="cls-3" d="M54.45,109.37s9.56,0,15.89,14.54c5,11.39,22.85,13.07,33.08,7.28A60.81,60.81,0,0,1,171,137.3c9,7.54,26.91,9.09,33.85-1.22,8.84-13.14,18.25-11.45,18.25-11.45,12.9,48.05-30.48,77.06-91.49,71.53S33.13,154.32,54.45,109.37Z" transform="translate(0 -17.2)"/><g class="cls-4"><path class="cls-1" d="M53.94,110.45c-10.75,38.72,24.34,68.9,78.75,73.82s94.31-18.44,90.72-58.42c11.84,47.32-31.31,75.79-91.8,70.31S33.74,154.91,53.94,110.45Z" transform="translate(0 -17.2)"/></g><g class="cls-4"><path class="cls-1" d="M103.15,133.62a13.26,13.26,0,0,0,12.54,8.48,18.71,18.71,0,0,0,8.75-1.62,1.26,1.26,0,0,0,.3-2c-3.76-3.35-5.76-7.71-4.28-11.26,2.7-6.43,17.82-4.69,17.82-4.69s15.19,1,16.68,7.81c.83,3.77-1.94,7.71-6.25,10.33a1.25,1.25,0,0,0-.07,2.07,18.65,18.65,0,0,0,8.29,3.14,13.24,13.24,0,0,0,13.85-6.09s3.58,8.44-3.63,14.55a5.16,5.16,0,0,0-1.44,1.9c-2.34,5.23-13.15,26.64-32.76,24.87s-26.4-24.78-27.76-30.35a5.34,5.34,0,0,0-1.08-2.12C98.12,141.28,103.15,133.62,103.15,133.62Z" transform="translate(0 -17.2)"/></g><g class="cls-7"><path class="cls-3" d="M56.19,105.92a19.25,19.25,0,0,0,1.57-4c3.21-11.57,22.29-67.92,88-62s74.35,64.8,75.43,76.76a19,19,0,0,0,.84,4.17c.4,1.25.76,2.48,1.09,3.7a58.62,58.62,0,0,1,1.73,23.88,62,62,0,0,0-2.24-18.26c-.32-1.23-.69-2.46-1.09-3.71a19.07,19.07,0,0,1-.84-4.16c-.9-10-7.11-52.77-47.5-70,0,0,0,0,0,0-.53,2-5.33,2.38-10.72.93s-9.33-4.23-8.8-6.2a1.62,1.62,0,0,1,.19-.4q-4.12-.72-8.59-1.13c-65.68-5.94-84.77,50.41-88,62a19.25,19.25,0,0,1-1.57,4,64.06,64.06,0,0,0-7.22,21C48.75,124.11,51.22,115.18,56.19,105.92Z" transform="translate(0 -17.2)"/></g><path class="cls-1" d="M161.15,117.25l.42-.44.37-.38c.25-.23.5-.47.76-.69.51-.43,1-.86,1.56-1.24a26.77,26.77,0,0,1,3.37-2.11,27.27,27.27,0,0,1,7.51-2.63,24.25,24.25,0,0,1,7.92-.24,21.79,21.79,0,0,1,7.3,2.4,1.15,1.15,0,0,1,.46,1.55,1.13,1.13,0,0,1-1.14.58h0A26.74,26.74,0,0,0,183,114a23.51,23.51,0,0,0-3.16.6,28,28,0,0,0-3,1,33,33,0,0,0-5.56,3q-1.32.87-2.58,1.83c-.41.32-.83.63-1.22,1l-1.09.89-.3.25a3.59,3.59,0,0,1-4.89-5.24Z" transform="translate(0 -17.2)"/><path class="cls-1" d="M110.72,117.21l-.91-1.07c-.33-.4-.69-.78-1-1.17-.71-.77-1.44-1.54-2.2-2.26a32.29,32.29,0,0,0-4.94-3.93,27.76,27.76,0,0,0-2.78-1.54,25.12,25.12,0,0,0-3-1.15A27,27,0,0,0,89.26,105h0a1.14,1.14,0,0,1-1.08-1.2,1.17,1.17,0,0,1,.79-1,21.71,21.71,0,0,1,7.61-1,24.15,24.15,0,0,1,7.75,1.65,27.18,27.18,0,0,1,6.91,3.94,26.53,26.53,0,0,1,2.94,2.67c.46.48.89,1,1.32,1.51.21.26.41.53.62.81s.2.29.29.44l.34.51a3.59,3.59,0,0,1-5.75,4.28Z" transform="translate(0 -17.2)"/><path class="cls-1" d="M136.57,141.36c-9.33-.85-17.63-9.47-15.07-15.57s16.88-4.44,16.88-4.44,14.4,1,15.81,7.4S145.9,142.2,136.57,141.36Z" transform="translate(0 -17.2)"/><path class="cls-1" d="M138.83,139.51c0,.1.13.34.21.51s.17.39.26.58c.19.39.4.77.6,1.15a20.66,20.66,0,0,0,1.41,2.17,17.12,17.12,0,0,0,3.59,3.62,13.16,13.16,0,0,0,2.14,1.33,14.67,14.67,0,0,0,2.34,1,18.66,18.66,0,0,0,5.1.86,22.22,22.22,0,0,0,5.29-.45,13.25,13.25,0,0,0,4.74-1.91,13.59,13.59,0,0,0,3.59-3.62,24.19,24.19,0,0,0,2.58-5h0a.1.1,0,0,1,.11,0,.1.1,0,0,1,.05.06,9.9,9.9,0,0,1-.36,6.21,11.93,11.93,0,0,1-3.91,5.2,16.82,16.82,0,0,1-5.82,2.93,25.45,25.45,0,0,1-6.28.94,19.82,19.82,0,0,1-17-8.31,24.46,24.46,0,0,1-1.7-2.77c-.25-.48-.47-1-.68-1.48-.11-.25-.21-.5-.31-.77s-.18-.49-.29-.86a2.25,2.25,0,0,1,4.25-1.48Z" transform="translate(0 -17.2)"/><path class="cls-1" d="M138.68,141.21c-.17.34-.29.54-.44.79s-.29.48-.44.71c-.29.46-.61.9-.94,1.33a22.49,22.49,0,0,1-2.17,2.41,20.61,20.61,0,0,1-5.37,3.74,20,20,0,0,1-12.81,1.39,25.09,25.09,0,0,1-6-2,17.1,17.1,0,0,1-5.2-3.93,12,12,0,0,1-2.91-5.82,9.89,9.89,0,0,1,.76-6.18.08.08,0,0,1,.11,0,.07.07,0,0,1,0,0h0A23.23,23.23,0,0,0,105,139a13.66,13.66,0,0,0,2.87,4.21,13.22,13.22,0,0,0,4.33,2.73,22.14,22.14,0,0,0,5.12,1.39,18.76,18.76,0,0,0,5.18.07,14.71,14.71,0,0,0,2.47-.55,13.47,13.47,0,0,0,2.35-.92,17.32,17.32,0,0,0,4.17-2.92,19.89,19.89,0,0,0,1.78-1.89c.27-.34.55-.67.8-1l.36-.52c.11-.16.24-.37.29-.46l.09-.14a2.25,2.25,0,0,1,3.92,2.21Z" transform="translate(0 -17.2)"/><path class="cls-1" d="M110.44,147.32s2.81,30.08,22.71,31.88c8.63.78,15.06-4.26,19.57-10.21a57.93,57.93,0,0,0,8.49-17.08s-16.1,5.39-24.64-10.55C125.31,155.51,110.44,147.32,110.44,147.32Z" transform="translate(0 -17.2)"/><path class="cls-5" d="M135.14,157.17c15,1.36,17.58,11.82,17.58,11.82-4.51,5.95-10.94,11-19.57,10.21s-14.06-6.89-17.42-13.56C115.73,165.64,120.18,155.82,135.14,157.17Z" transform="translate(0 -17.2)"/><g class="cls-4"><path class="cls-6" d="M134,170.27a22.3,22.3,0,0,0,16.59-5.47,13.31,13.31,0,0,1,2.18,4.19c-4.51,5.95-10.94,11-19.57,10.21s-14.06-6.89-17.42-13.56a13.21,13.21,0,0,1,2.89-3.72A22.33,22.33,0,0,0,134,170.27Z" transform="translate(0 -17.2)"/></g><path class="cls-1" d="M135,181.25q-1,0-2-.09c-21.28-1.92-24.38-32.36-24.5-33.66a2,2,0,0,1,.88-1.83,2,2,0,0,1,2-.08c.54.3,13.58,7.17,23.64-5.46a2,2,0,0,1,3.28.29c7.63,14.24,21.69,9.81,22.28,9.62a2,2,0,0,1,2.52,2.41C162.77,153.66,154.78,181.25,135,181.25Zm-22.06-30.84c1.38,7.53,6.15,25.53,20.43,26.82s22.23-15.55,24.92-22.72c-5.28.67-15.24.3-22-9.82C127.83,153.43,118,152,112.89,150.41Z" transform="translate(0 -17.2)"/><ellipse class="cls-3" cx="137.96" cy="125.74" rx="1.81" ry="7.96" transform="translate(0.3 234.6) rotate(-84.83)"/><ellipse class="cls-3" cx="165.99" cy="99.15" rx="8.27" ry="4.87" transform="translate(-27.35 79.89) rotate(-30.24)"/><path class="cls-3" d="M121.49,99.94c-1.75,2-6,1.29-9.45-1.69s-4.86-7-3.11-9.07,5.41-1.34,8.88,1.63S123.24,97.9,121.49,99.94Z" transform="translate(0 -17.2)"/><path class="cls-1" d="M146,198.8q-7.09,0-14.54-.67c-37.6-3.4-67.18-18.68-79.14-40.87-8.48-15.74-7.74-33.82,2.16-52.27a17.78,17.78,0,0,0,1.41-3.54C59.09,89.79,78.65,31.94,145.92,38s76.13,66.51,77.22,78.56a16.9,16.9,0,0,0,.75,3.73c6.42,19.93,3.9,37.85-7.27,51.81C203,189.22,177.14,198.8,146,198.8ZM136.33,41.54c-56.74,0-73.74,50.39-76.67,61a21.89,21.89,0,0,1-1.73,4.36c-9.24,17.23-10,34-2.16,48.53,11.32,21,39.74,35.53,76,38.81s66.84-5.89,81.75-24.53c10.31-12.88,12.59-29.53,6.59-48.14a21,21,0,0,1-.92-4.59c-1.05-11.5-9.49-69.17-73.65-75C142.38,41.67,139.3,41.54,136.33,41.54Z" transform="translate(0 -17.2)"/><circle class="cls-9" cx="135.12" cy="232.41" r="57.45"/><g class="cls-8"><path class="cls-3" d="M163.88,273.43A37.11,37.11,0,1,1,106.21,227a37.1,37.1,0,0,0,57.67,46.47Z" transform="translate(0 -17.2)"/></g><path class="cls-10" d="M92.87,210.74a57.45,57.45,0,0,0,82.55,79.8c.71-.8,1.41-1.62,2.08-2.46a57.45,57.45,0,0,1-76.73-83.69A57.51,57.51,0,0,0,92.87,210.74Z" transform="translate(0 -17.2)"/><g class="cls-8"><path class="cls-3" d="M193.16,249a57.37,57.37,0,0,1-22.74,45.79,57.45,57.45,0,0,0-75.79-85.95A57.45,57.45,0,0,1,193.16,249Z" transform="translate(0 -17.2)"/></g><path class="cls-1" d="M135.71,308.85A59.83,59.83,0,1,1,195.54,249,59.9,59.9,0,0,1,135.71,308.85Zm0-114.91A55.08,55.08,0,1,0,190.79,249,55.14,55.14,0,0,0,135.71,193.94Z" transform="translate(0 -17.2)"/><circle class="cls-10" cx="135.71" cy="231.82" r="38.12"/><g class="cls-4"><path class="cls-1" d="M163.88,274.7A38.12,38.12,0,0,0,104.63,227a38.12,38.12,0,1,1,59.25,47.74Z" transform="translate(0 -17.2)"/></g><path class="cls-11" d="M133.33,267.34v-4.26a18.21,18.21,0,0,1-7.63-1.93l1.34-5.26a15.92,15.92,0,0,0,7.46,2c2.56,0,4.31-1,4.31-2.79s-1.44-2.78-4.76-3.9c-4.81-1.62-8.08-3.87-8.08-8.22,0-4,2.78-7.05,7.58-8V230.7H138v4a16.09,16.09,0,0,1,6.51,1.48l-1.3,5.08a14.84,14.84,0,0,0-6.47-1.53c-2.92,0-3.86,1.26-3.86,2.51,0,1.49,1.57,2.43,5.39,3.87,5.34,1.88,7.49,4.35,7.49,8.39s-2.82,7.41-8,8.31v4.58Z" transform="translate(0 -17.2)"/><path class="cls-2" d="M14.72,128.31q.19,3.12.63,6.45C19.64,168.51,40.71,218,75.9,236c0,0,1.06-34.53,12.63-48.2.27-.33.55-.64.84-.94a19.39,19.39,0,0,1-4.92-2.44l0,0c-7.1-4.57-20.52-17.17-31.29-50.37-.23-.72-.47-1.45-.7-2.19q-1.14-3.66-2.27-7.62s9.34-2.65,6.46-14.54a14.62,14.62,0,0,0-2.47-5.18h0c-6.46-8.77-22.67-13-34.58-1a13.78,13.78,0,0,0-3,4.94C14.78,113.16,14.17,120.09,14.72,128.31Z" transform="translate(0 -17.2)"/><g class="cls-4"><path class="cls-1" d="M14.72,128.31q.19,3.12.63,6.45C19.64,168.51,40.71,218,75.9,236c0,0,1.06-34.53,12.63-48.2-2.26-1.91-3.92-3.25-4.08-3.38l0,0A40.76,40.76,0,0,0,73,199.75a13.68,13.68,0,0,1-22,4.47C37.74,191.51,21.17,168.23,14.72,128.31Z" transform="translate(0 -17.2)"/></g><path class="cls-3" d="M15.35,134.76c21,9.52,32.36,4.27,37.79-.77-1-3.1-2-6.37-3-9.81,0,0,9.34-2.65,6.46-14.54s-23-20.31-37.06-6.23a13.78,13.78,0,0,0-3,4.94C14.33,114.37,13.94,123.73,15.35,134.76Z" transform="translate(0 -17.2)"/><g class="cls-4"><path class="cls-1" d="M52.44,131.8q-1.14-3.66-2.27-7.62s9.34-2.65,6.46-14.54a14.62,14.62,0,0,0-2.47-5.18h0s1.67,12.1-12,12.91a46.87,46.87,0,0,1-20.53-3.45,2.13,2.13,0,0,0-2.92,2.27C19.63,122.44,25,134.18,52.44,131.8Z" transform="translate(0 -17.2)"/></g><path class="cls-1" d="M50.81,126.05c-.74.25-1.36.44-2.05.61s-1.34.32-2,.45a33.11,33.11,0,0,1-4.09.51,30.25,30.25,0,0,1-4.15,0,27.66,27.66,0,0,1-4.14-.57,21.85,21.85,0,0,1-7.71-3.24,12.92,12.92,0,0,1-5.14-6.36.18.18,0,0,1,.28-.2h0a46.17,46.17,0,0,0,6.26,4.25,17.68,17.68,0,0,0,3.37,1.38,22.47,22.47,0,0,0,3.55.78,31.83,31.83,0,0,0,3.66.24,35.08,35.08,0,0,0,3.69-.19c1.23-.13,2.45-.31,3.67-.55.6-.13,1.21-.25,1.81-.4s1.22-.3,1.72-.46l0,0a2,2,0,0,1,1.24,3.75Z" transform="translate(0 -17.2)"/><path class="cls-1" d="M48.22,123.87l.17-1.41.17-1.47c.1-1,.17-2,.21-3s0-2,0-3a26,26,0,0,0-.4-3v0a.35.35,0,0,1,.28-.41.32.32,0,0,1,.31.09,9.07,9.07,0,0,1,2,2.8,15.52,15.52,0,0,1,1,3.25,22.35,22.35,0,0,1,.39,3.34c0,.56,0,1.12,0,1.68a11.9,11.9,0,0,1-.17,1.73,2,2,0,0,1-3.9-.56Z" transform="translate(0 -17.2)"/><path class="cls-1" d="M35.5,124.48l.18-1.41.16-1.46c.1-1,.17-2,.21-3s0-2,0-3a26,26,0,0,0-.4-3v0a.36.36,0,0,1,.28-.42.37.37,0,0,1,.31.09,9.06,9.06,0,0,1,2,2.81,15.52,15.52,0,0,1,1,3.25,22.05,22.05,0,0,1,.39,3.34q0,.84,0,1.68a13.41,13.41,0,0,1-.18,1.72,2,2,0,0,1-3.9-.55Z" transform="translate(0 -17.2)"/><path class="cls-1" d="M75.9,237.93a1.89,1.89,0,0,1-.89-.22c-34-17.34-55.48-63.45-61.09-99-2.81-17.83-1.26-31.23,4.26-36.75,7-7,16.14-9.52,25.16-7C51,97.17,57,102.73,58.55,109.17c2.44,10.08-3,14.5-6,16.12C68,178.2,89.69,184.86,89.9,184.92a2,2,0,0,1,.95,3.21c-12.33,13.91-13,47.52-13,47.86a2,2,0,0,1-1,1.66A2,2,0,0,1,75.9,237.93ZM36.54,98A21.93,21.93,0,0,0,21,104.8c-4.48,4.48-5.69,17.26-3.15,33.34,5.3,33.57,25.08,76.82,56.23,94.57.45-8.58,2.54-32,12.16-45.1-6.74-3.47-24.84-16.73-37.94-62.89a2,2,0,0,1,1.36-2.43c.75-.23,7.43-2.53,5.08-12.19-1.23-5.08-6.11-9.51-12.44-11.28A21,21,0,0,0,36.54,98Z" transform="translate(0 -17.2)"/><path class="cls-2" d="M170.67,249c7.79,18.38,40.21,11.59,53.31-11.76A43,43,0,0,0,228.55,225c4.1-19.64-7.44-39.25-16.38-49.72v0a81.66,81.66,0,0,1-27.9,17s5.51,6.76,5.88,20.64a53.81,53.81,0,0,0-7,4.58C175.37,223.47,164.65,234.79,170.67,249Z" transform="translate(0 -17.2)"/><path class="cls-3" d="M206.18,254.69c-14.09,7.64-30.3,6.6-35.51-5.69-6.36-15,6-26.79,13.76-32.43C194.92,220.46,213.18,230.85,206.18,254.69Z" transform="translate(0 -17.2)"/><g class="cls-4"><path class="cls-1" d="M170.67,249c7.79,18.38,40.21,11.59,53.31-11.76h0s-28.57,22.64-43.16,6.92c-9.74-10.49-3.14-20.88,2.33-26.64C175.37,223.47,164.65,234.79,170.67,249Z" transform="translate(0 -17.2)"/></g><g class="cls-4"><path class="cls-1" d="M184.27,192.3s5.51,6.76,5.88,20.64c7.67-5,16.13-5.67,20.65-5.58a.6.6,0,0,0,.23-1.16,30.16,30.16,0,0,0-12.1-1.59,3.26,3.26,0,0,1-3.35-2.48,29.94,29.94,0,0,0-1.74-5,3,3,0,0,1,1.23-3.84c18.62-11,17.17-17.74,17.1-18v0A81.66,81.66,0,0,1,184.27,192.3Z" transform="translate(0 -17.2)"/></g><g class="cls-8"><path class="cls-3" d="M220.61,238.93a42.91,42.91,0,0,0,4.57-12.23c4-19.18-6.9-38.33-15.74-49,1.77-1.49,2.73-2.45,2.73-2.45v0c8.94,10.47,20.48,30.08,16.38,49.72A43,43,0,0,1,224,237.24a45.22,45.22,0,0,1-20.78,18.93A45.13,45.13,0,0,0,220.61,238.93Z" transform="translate(0 -17.2)"/></g><path class="cls-1" d="M189.37,211.13c.82-.28,1.66-.55,2.51-.8s1.69-.5,2.55-.74l2.57-.7a13.82,13.82,0,0,1,2.71-.45.15.15,0,0,1,.14.13.14.14,0,0,1,0,.09,11.78,11.78,0,0,1-2.06,1.84c-.74.51-1.48,1-2.23,1.51s-1.51,1-2.27,1.42-1.54.9-2.33,1.32a2,2,0,1,1-1.86-3.49A1.6,1.6,0,0,1,189.37,211.13Z" transform="translate(0 -17.2)"/><path class="cls-1" d="M168.54,236.75c1-.28,2-.55,3-.81l3.1-.8c1-.25,2.06-.56,3.11-.81a32.22,32.22,0,0,1,3.25-.64h0a.48.48,0,0,1,.54.42.47.47,0,0,1-.13.39,13.68,13.68,0,0,1-2.66,2.16,29.44,29.44,0,0,1-3,1.61c-1,.47-2.05.92-3.1,1.31a29.8,29.8,0,0,1-3.24,1,2,2,0,0,1-1-3.82Z" transform="translate(0 -17.2)"/><path class="cls-1" d="M174.59,253.24c.93-.24,1.91-.49,2.88-.72l2.91-.69,2.91-.73a21.71,21.71,0,0,1,3-.55h0a.38.38,0,0,1,.41.34.36.36,0,0,1-.1.28,11.46,11.46,0,0,1-2.47,2c-.9.54-1.82,1-2.75,1.49s-1.87.89-2.82,1.29-1.91.76-2.93,1.08a2,2,0,1,1-1.17-3.77l.07,0Z" transform="translate(0 -17.2)"/><path class="cls-1" d="M188.51,261.5c-9.26,0-16.48-4.25-19.65-11.73-4-9.48-1.69-19.2,6.73-28.13a57.63,57.63,0,0,1,12.54-9.84c-.6-12.14-5.34-18.2-5.39-18.27a2,2,0,0,1,.89-3.1,80.18,80.18,0,0,0,27.15-16.54,1.93,1.93,0,0,1,1.47-.57,2,2,0,0,1,1.42.69c5.19,6.08,21.75,27.76,16.81,51.41a45.33,45.33,0,0,1-15.16,25.37c-6.93,5.92-15.56,9.76-23.69,10.56Q190,261.5,188.51,261.5Zm-1.24-68.2c1.79,3.16,4.59,9.64,4.85,19.59a2,2,0,0,1-1.07,1.8c-.26.14-26.75,14.21-18.56,33.54,2.85,6.73,9.69,10.08,18.76,9.19,14.11-1.38,31.3-13.35,35.37-32.8,4.21-20.2-8.76-39.15-14.64-46.47A84.32,84.32,0,0,1,187.27,193.3Z" transform="translate(0 -17.2)"/><path class="cls-12" d="M164.06,183.79c0-9.84-7.84-9.63-7.84-9.63,8.17,0,7.84-9.09,7.84-9.09s-.52,9.09,7.84,9.09C171.9,174.16,164.06,174,164.06,183.79Z" transform="translate(0 -17.2)"/><path class="cls-12" d="M74.12,203.87c0-6.34-5.05-6.21-5.05-6.21,5.27,0,5.05-5.85,5.05-5.85s-.33,5.85,5.06,5.85C79.18,197.66,74.12,197.53,74.12,203.87Z" transform="translate(0 -17.2)"/><path class="cls-12" d="M105.61,181.75c0-4.7-3.75-4.6-3.75-4.6,3.91,0,3.75-4.33,3.75-4.33s-.25,4.33,3.74,4.33C109.35,177.15,105.61,177.05,105.61,181.75Z" transform="translate(0 -17.2)"/><path class="cls-12" d="M194.36,202.44c0-6.35-5.05-6.21-5.05-6.21,5.27,0,5.05-5.86,5.05-5.86s-.33,5.86,5.06,5.86C199.42,196.23,194.36,196.09,194.36,202.44Z" transform="translate(0 -17.2)"/></svg>